<svg width="98.862305" height="89.535889" viewBox="0 0 98.8623 89.5359" fill="none" xmlns="http://www.w3.org/2000/svg" xmlns:xlink="http://www.w3.org/1999/xlink">
	<desc>
			Created with Pixso.
	</desc>
	<defs/>
	<circle id="Ellipse 14" cx="23.788086" cy="65.747314" r="23.788406" fill="#DDDDDD" fill-opacity="1.000000"/>
	<path id="Star 13" d="M79.38 1.46L78.46 4.3C78.39 4.51 78.2 4.65 77.98 4.65L74.99 4.65C74.51 4.65 74.31 5.27 74.7 5.55L77.12 7.31C77.29 7.43 77.37 7.66 77.3 7.87L76.37 10.71C76.22 11.17 76.75 11.55 77.14 11.27L79.56 9.51C79.74 9.38 79.97 9.38 80.15 9.51L82.57 11.27C82.96 11.55 83.49 11.17 83.34 10.71L82.41 7.87C82.35 7.66 82.42 7.43 82.59 7.31L85.01 5.55C85.4 5.27 85.2 4.65 84.72 4.65L81.73 4.65C81.51 4.65 81.32 4.51 81.25 4.3L80.33 1.46C80.18 1 79.53 1 79.38 1.46Z" fill="#141414" fill-opacity="1.000000" fill-rule="evenodd"/>
	<path id="Polygon 1" d="M29.69 76.88L22.15 69.33C21.87 69.06 21.41 69.18 21.31 69.55L18.55 79.86C18.45 80.23 18.79 80.57 19.16 80.47L29.47 77.71C29.84 77.61 29.96 77.15 29.69 76.88Z" fill="#4EAF4E" fill-opacity="1.000000" fill-rule="evenodd"/>
	<circle id="Ellipse 13" cx="91.604492" cy="23.702148" r="7.257034" fill="#DADADA" fill-opacity="1.000000"/>
	<path id="Ellipse 12" d="M31.29 61.39C35.26 68.27 41.65 72.88 48.76 74.79C56.42 76.85 64.2 75.6 70.58 71.91C77.45 67.95 82.07 61.57 83.97 54.46C86.03 46.79 84.78 39.02 81.11 32.64L56.2 47.02L31.29 61.39Z" fill="#FFCC4A" fill-opacity="1.000000" fill-rule="evenodd"/>
	<path id="Vector" d="M55.97 46.19L55.97 17.14" stroke="#141414" stroke-opacity="1.000000" stroke-width="2.000000" stroke-linejoin="round" stroke-linecap="round"/>
	<path id="Vector" d="M81.11 31.66L30.83 60.71" stroke="#141414" stroke-opacity="1.000000" stroke-width="2.000000" stroke-linejoin="round" stroke-linecap="round"/>
	<path id="Vector" d="M27.42 51.51C27.09 49.76 26.92 47.97 26.93 46.19C26.93 40.18 28.79 34.32 32.26 29.42C35.72 24.51 40.63 20.81 46.29 18.81L46.29 40.59L27.42 51.51Z" fill="#4EAF4E" fill-opacity="1.000000" fill-rule="nonzero"/>
	<path id="Vector" d="M26.93 46.19C26.93 40.18 28.79 34.32 32.26 29.42C35.72 24.51 40.63 20.81 46.29 18.81L46.29 40.59L27.42 51.51C27.09 49.76 26.92 47.97 26.93 46.19Z" stroke="#141414" stroke-opacity="1.000000" stroke-width="2.000000" stroke-linejoin="round"/>
	<path id="Vector" d="M26.93 46.19C26.93 40.18 28.79 34.32 32.26 29.42C35.72 24.51 40.63 20.81 46.29 18.81L46.29 40.59L27.42 51.51C27.09 49.76 26.92 47.97 26.93 46.19Z" stroke="#141414" stroke-opacity="1.000000" stroke-width="2.000000" stroke-linejoin="round"/>
	<path id="Vector" d="M55.97 17.14C61.06 17.14 66.06 18.48 70.47 21.02C74.88 23.56 78.54 27.22 81.1 31.62C83.65 36.02 85 41.02 85.01 46.11C85.03 51.2 83.7 56.2 81.17 60.62C78.64 65.03 75 68.71 70.6 71.27C66.21 73.84 61.22 75.2 56.13 75.23C51.04 75.26 46.03 73.94 41.61 71.43C37.19 68.91 33.5 65.28 30.92 60.89" stroke="#141414" stroke-opacity="1.000000" stroke-width="2.000000" stroke-linejoin="round" stroke-linecap="round"/>
</svg>
