<svg width="52.778320" height="52.777832" viewBox="0 0 52.7783 52.7778" fill="none" xmlns="http://www.w3.org/2000/svg" xmlns:xlink="http://www.w3.org/1999/xlink">
	<desc>
			Created with Pixso.
	</desc>
	<defs/>
	<circle id="Background" cx="26.388672" cy="26.388916" r="26.388947" fill="#181818" fill-opacity="1.000000"/>
	<path id="Pattern" d="M17.9 20.97C17.77 20.87 17.66 20.74 17.59 20.59C17.52 20.45 17.48 20.29 17.48 20.12L17.48 15.37C17.48 15.09 17.59 14.82 17.79 14.62C17.99 14.42 18.25 14.31 18.53 14.31L33.33 14.31C33.61 14.31 33.88 14.42 34.08 14.62C34.28 14.82 34.39 15.09 34.39 15.37L34.39 20.07C34.39 20.23 34.35 20.39 34.27 20.54C34.2 20.69 34.09 20.82 33.96 20.91L25.93 26.99L17.9 20.97Z" stroke="#FFFFFF" stroke-opacity="1.000000" stroke-width="2.000000" stroke-linejoin="round"/>
	<path id="Pattern" d="M17.9 33.02C17.77 33.11 17.66 33.24 17.59 33.39C17.52 33.54 17.48 33.7 17.48 33.86L17.48 38.62C17.48 38.9 17.59 39.17 17.79 39.36C17.99 39.56 18.25 39.67 18.53 39.67L33.33 39.67C33.61 39.67 33.88 39.56 34.08 39.36C34.28 39.17 34.39 38.9 34.39 38.62L34.39 33.91C34.39 33.75 34.35 33.59 34.27 33.44C34.2 33.29 34.09 33.17 33.96 33.07L25.93 26.99L17.9 33.02Z" stroke="#FFFFFF" stroke-opacity="1.000000" stroke-width="2.000000" stroke-linejoin="round"/>
</svg>
