<svg width="96.387695" height="71.062988" viewBox="0 0 96.3877 71.063" fill="none" xmlns="http://www.w3.org/2000/svg" xmlns:xlink="http://www.w3.org/1999/xlink">
	<desc>
			Created with Pixso.
	</desc>
	<defs/>
	<circle id="Ellipse 14" cx="65.501953" cy="27.384033" r="23.788406" fill="#282828" fill-opacity="1.000000"/>
	<path id="Star 13" d="M35.07 1.46L33.92 4.98C33.86 5.19 33.67 5.33 33.45 5.33L29.74 5.33C29.26 5.33 29.06 5.95 29.45 6.23L32.45 8.41C32.62 8.54 32.7 8.77 32.63 8.97L31.48 12.5C31.33 12.96 31.86 13.34 32.25 13.06L35.25 10.88C35.43 10.75 35.66 10.75 35.84 10.88L38.84 13.06C39.23 13.34 39.76 12.96 39.61 12.5L38.46 8.97C38.4 8.77 38.47 8.54 38.64 8.41L41.64 6.23C42.04 5.95 41.83 5.33 41.35 5.33L37.64 5.33C37.43 5.33 37.23 5.19 37.17 4.98L36.02 1.46C35.87 1 35.22 1 35.07 1.46Z" fill="#FFCC4A" fill-opacity="1.000000" fill-rule="evenodd"/>
	<path id="Polygon 1" d="M15.07 63.53L7.53 55.98C7.25 55.71 6.79 55.83 6.69 56.2L3.93 66.51C3.83 66.89 4.17 67.23 4.54 67.13L14.85 64.36C15.22 64.26 15.34 63.8 15.07 63.53Z" fill="#4EAF4E" fill-opacity="1.000000" fill-rule="evenodd"/>
	<circle id="Ellipse 13" cx="90.500977" cy="19.982422" r="5.886673" fill="#FFFFFF" fill-opacity="1.000000"/>
</svg>
