<svg width="96.387695" height="90.000000" viewBox="0 0 96.3877 90" fill="none" xmlns="http://www.w3.org/2000/svg" xmlns:xlink="http://www.w3.org/1999/xlink">
	<desc>
			Created with Pixso.
	</desc>
	<defs/>
	<circle id="Ellipse 14" cx="65.501953" cy="35.384033" r="23.788406" fill="#282828" fill-opacity="1.000000"/>
	<path id="Star 13" d="M35.07 9.46L33.92 12.98C33.86 13.19 33.67 13.33 33.45 13.33L29.74 13.33C29.26 13.33 29.06 13.95 29.45 14.23L32.45 16.41C32.62 16.54 32.7 16.77 32.63 16.97L31.48 20.5C31.33 20.96 31.86 21.34 32.25 21.06L35.25 18.88C35.43 18.75 35.66 18.75 35.84 18.88L38.84 21.06C39.23 21.34 39.76 20.96 39.61 20.5L38.46 16.97C38.4 16.77 38.47 16.54 38.64 16.41L41.64 14.23C42.04 13.95 41.83 13.33 41.35 13.33L37.64 13.33C37.43 13.33 37.23 13.19 37.17 12.98L36.02 9.46C35.87 9 35.22 9 35.07 9.46Z" fill="#FFCC4A" fill-opacity="1.000000" fill-rule="evenodd"/>
	<path id="Polygon 1" d="M15.07 71.53L7.53 63.98C7.25 63.71 6.79 63.83 6.69 64.2L3.93 74.51C3.83 74.89 4.17 75.23 4.54 75.13L14.85 72.36C15.22 72.26 15.34 71.8 15.07 71.53Z" fill="#4EAF4E" fill-opacity="1.000000" fill-rule="evenodd"/>
	<circle id="Ellipse 13" cx="90.500977" cy="27.982422" r="5.886673" fill="#FFFFFF" fill-opacity="1.000000"/>
	<path id="Vector" d="M76.89 30.31L29.38 30.31C28.19 30.31 27.22 31.27 27.22 32.47L27.22 64.86C27.22 66.05 28.19 67.02 29.38 67.02L76.89 67.02C78.08 67.02 79.05 66.05 79.05 64.86L79.05 32.47C79.05 31.27 78.08 30.31 76.89 30.31Z" fill="#181818" fill-opacity="1.000000" fill-rule="nonzero"/>
	<path id="Vector" d="M76.89 30.31C78.08 30.31 79.05 31.27 79.05 32.47L79.05 64.86C79.05 66.05 78.08 67.02 76.89 67.02L29.38 67.02C28.19 67.02 27.22 66.05 27.22 64.86L27.22 32.47C27.22 31.27 28.19 30.31 29.38 30.31L76.89 30.31Z" stroke="#FFFFFF" stroke-opacity="1.000000" stroke-width="2.000000" stroke-linejoin="round"/>
	<path id="Vector" d="M76.89 30.31L29.38 30.31C28.19 30.31 27.22 31.27 27.22 32.47L27.22 64.86C27.22 66.05 28.19 67.02 29.38 67.02L76.89 67.02C78.08 67.02 79.05 66.05 79.05 64.86L79.05 32.47C79.05 31.27 78.08 30.31 76.89 30.31Z" fill="#181818" fill-opacity="1.000000" fill-rule="nonzero"/>
	<path id="Vector" d="M76.89 30.31C78.08 30.31 79.05 31.27 79.05 32.47L79.05 64.86C79.05 66.05 78.08 67.02 76.89 67.02L29.38 67.02C28.19 67.02 27.22 66.05 27.22 64.86L27.22 32.47C27.22 31.27 28.19 30.31 29.38 30.31L76.89 30.31Z" stroke="#FFFFFF" stroke-opacity="1.000000" stroke-width="2.000000" stroke-linejoin="round"/>
	<path id="Vector" d="M76.89 56.72L29.38 56.72C28.19 56.72 27.22 56.99 27.22 57.33L27.22 66.41C27.22 66.75 28.19 67.02 29.38 67.02L76.89 67.02C78.08 67.02 79.05 66.75 79.05 66.41L79.05 57.33C79.05 56.99 78.08 56.72 76.89 56.72Z" fill="#4EAF4E" fill-opacity="1.000000" fill-rule="nonzero"/>
	<path id="Vector" d="M76.89 56.72C78.08 56.72 79.05 56.99 79.05 57.33L79.05 66.41C79.05 66.75 78.08 67.02 76.89 67.02L29.38 67.02C28.19 67.02 27.22 66.75 27.22 66.41L27.22 57.33C27.22 56.99 28.19 56.72 29.38 56.72L76.89 56.72Z" stroke="#FFFFFF" stroke-opacity="1.000000" stroke-width="2.000000" stroke-linejoin="round"/>
	<path id="Vector" d="M61.77 67.02L70.41 77.81" stroke="#FFFFFF" stroke-opacity="1.000000" stroke-width="2.000000" stroke-linejoin="round" stroke-linecap="round"/>
	<path id="Vector" d="M44.5 67.02L35.86 77.81" stroke="#FFFFFF" stroke-opacity="1.000000" stroke-width="2.000000" stroke-linejoin="round" stroke-linecap="round"/>
	<path id="Vector" d="M44.5 49.74L44.5 56.22" stroke="#FFFFFF" stroke-opacity="1.000000" stroke-width="2.000000" stroke-linejoin="round" stroke-linecap="round"/>
	<path id="Vector" d="M53.13 45.42L53.13 56.22" stroke="#FFFFFF" stroke-opacity="1.000000" stroke-width="2.000000" stroke-linejoin="round" stroke-linecap="round"/>
	<path id="Vector" d="M61.77 41.1L61.77 56.22" stroke="#FFFFFF" stroke-opacity="1.000000" stroke-width="2.000000" stroke-linejoin="round" stroke-linecap="round"/>
	<path id="Vector" d="M53.13 30.31L53.13 23.83" stroke="#FFFFFF" stroke-opacity="1.000000" stroke-width="2.000000" stroke-linejoin="round" stroke-linecap="round"/>
</svg>
