<svg width="101.924805" height="90.000000" viewBox="0 0 101.925 90" fill="none" xmlns="http://www.w3.org/2000/svg" xmlns:xlink="http://www.w3.org/1999/xlink">
	<desc>
			Created with Pixso.
	</desc>
	<defs/>
	<circle id="Ellipse 14" cx="73.737305" cy="40.874268" r="23.788406" fill="#DADADA" fill-opacity="1.000000"/>
	<path id="Star 13" d="M94.71 65.42L93.79 68.27C93.72 68.47 93.53 68.61 93.31 68.61L90.32 68.61C89.84 68.61 89.64 69.23 90.03 69.52L92.45 71.27C92.62 71.4 92.7 71.63 92.63 71.83L91.71 74.67C91.56 75.13 92.08 75.52 92.48 75.23L94.89 73.48C95.07 73.35 95.31 73.35 95.48 73.48L97.9 75.23C98.29 75.52 98.82 75.13 98.67 74.67L97.75 71.83C97.68 71.63 97.75 71.4 97.93 71.27L100.35 69.52C100.74 69.23 100.54 68.61 100.05 68.61L97.06 68.61C96.85 68.61 96.65 68.47 96.59 68.27L95.66 65.42C95.51 64.96 94.86 64.96 94.71 65.42Z" fill="#141414" fill-opacity="1.000000" fill-rule="evenodd"/>
	<path id="Polygon 1" d="M15.07 51.89L7.52 44.34C7.25 44.07 6.79 44.19 6.69 44.56L3.93 54.87C3.83 55.25 4.17 55.59 4.54 55.49L14.85 52.72C15.22 52.62 15.34 52.16 15.07 51.89Z" fill="#4EAF4E" fill-opacity="1.000000" fill-rule="evenodd"/>
	<circle id="Ellipse 13" cx="48.308594" cy="19.021484" r="5.021439" fill="#DADADA" fill-opacity="1.000000"/>
	<path id="Vector" d="M80.16 37.78L22.01 37.78C20.78 37.78 19.78 38.78 19.78 40.01L19.78 71.32C19.78 72.56 20.78 73.56 22.01 73.56L80.16 73.56C81.4 73.56 82.4 72.56 82.4 71.32L82.4 40.01C82.4 38.78 81.4 37.78 80.16 37.78Z" fill="#EBEBEB" fill-opacity="1.000000" fill-rule="nonzero"/>
	<path id="Vector" d="M80.16 37.78C81.4 37.78 82.4 38.78 82.4 40.01L82.4 71.32C82.4 72.56 81.4 73.56 80.16 73.56L22.01 73.56C20.78 73.56 19.78 72.56 19.78 71.32L19.78 40.01C19.78 38.78 20.78 37.78 22.01 37.78L80.16 37.78Z" stroke="#141414" stroke-opacity="1.000000" stroke-width="2.000000" stroke-linejoin="round"/>
	<path id="Vector 2" d="M82.5 57.71L64.6 73.71L79.5 73.71C81.16 73.71 82.5 72.36 82.5 70.71L82.5 57.71Z" fill="#4EAF4E" fill-opacity="1.000000" fill-rule="nonzero"/>
	<path id="Vector 2" d="M82.5 57.71L82.5 70.71C82.5 72.36 81.16 73.71 79.5 73.71L64.6 73.71L82.5 57.71Z" stroke="#000000" stroke-opacity="1.000000" stroke-width="1.000000"/>
	<path id="Vector 1" d="M19.67 53.52L37.58 37.52L22.67 37.52C21.02 37.52 19.67 38.86 19.67 40.52L19.67 53.52Z" fill="#4EAF4E" fill-opacity="1.000000" fill-rule="nonzero"/>
	<path id="Vector 1" d="M19.67 53.52L19.67 40.52C19.67 38.86 21.02 37.52 22.67 37.52L37.58 37.52L19.67 53.52Z" stroke="#000000" stroke-opacity="1.000000" stroke-width="1.000000"/>
	<path id="Vector" d="M51.09 64.62C56.03 64.62 60.03 60.61 60.03 55.67C60.03 50.73 56.03 46.72 51.09 46.72C46.15 46.72 42.14 50.73 42.14 55.67C42.14 60.61 46.15 64.62 51.09 64.62Z" fill="#FFCC4A" fill-opacity="1.000000" fill-rule="nonzero"/>
	<path id="Vector" d="M51.09 64.62C46.15 64.62 42.14 60.61 42.14 55.67C42.14 50.73 46.15 46.72 51.09 46.72C56.03 46.72 60.03 50.73 60.03 55.67C60.03 60.61 56.03 64.62 51.09 64.62Z" stroke="#141414" stroke-opacity="1.000000" stroke-width="2.000000" stroke-linejoin="round"/>
	<path id="Vector" d="M64.51 37.78L82.4 53.43" stroke="#141414" stroke-opacity="1.000000" stroke-width="2.000000" stroke-linejoin="round" stroke-linecap="round"/>
	<path id="Vector" d="M64.51 73.56L82.4 57.91" stroke="#141414" stroke-opacity="1.000000" stroke-width="2.000000" stroke-linejoin="round" stroke-linecap="round"/>
	<path id="Vector" d="M37.01 37.05L37.01 37.03C37.43 36.66 38.05 36.7 38.42 37.12C38.79 37.54 38.75 38.16 38.33 38.53L38.3 38.53L37.01 37.05ZM20.44 54.16L20.44 54.19C20.02 54.55 19.39 54.51 19.03 54.09C18.66 53.67 18.7 53.05 19.12 52.68L19.15 52.68L20.44 54.16Z" fill="#D9D9D9" fill-opacity="1.000000" fill-rule="nonzero"/>
	<path id="Vector" d="M37.67 37.78L19.78 53.43" stroke="#141414" stroke-opacity="1.000000" stroke-width="2.000000" stroke-linejoin="round" stroke-linecap="round"/>
	<path id="Vector" d="M37.67 73.56L19.78 57.91" stroke="#141414" stroke-opacity="1.000000" stroke-width="2.000000" stroke-linejoin="round" stroke-linecap="round"/>
</svg>
