<svg width="52.332031" height="52.331787" viewBox="0 0 52.332 52.3318" fill="none" xmlns="http://www.w3.org/2000/svg" xmlns:xlink="http://www.w3.org/1999/xlink">
	<desc>
			Created with Pixso.
	</desc>
	<defs/>
	<circle id="Ellipse 15" cx="26.166016" cy="26.165771" r="26.165842" fill="#EAEAEA" fill-opacity="1.000000"/>
	<path id="Vector" d="M25.75 27.13C23.71 27.13 22.05 25.47 22.05 23.43C22.05 21.4 23.71 19.74 25.75 19.74C27.78 19.74 29.44 21.4 29.44 23.43C29.44 25.47 27.78 27.13 25.75 27.13Z" stroke="#181818" stroke-opacity="1.000000" stroke-width="2.000000" stroke-linejoin="round"/>
	<path id="Vector" d="M25.74 38.2C25.74 38.2 16.51 31.74 16.51 23.44C16.51 20.99 17.49 18.64 19.22 16.91C20.95 15.18 23.3 14.21 25.74 14.21C28.19 14.21 30.54 15.18 32.27 16.91C34 18.64 34.97 20.99 34.97 23.44C34.97 31.74 25.74 38.2 25.74 38.2Z" stroke="#181818" stroke-opacity="1.000000" stroke-width="2.000000" stroke-linejoin="round"/>
</svg>
