<svg width="100.647461" height="89.983154" viewBox="0 0 100.647 89.9832" fill="none" xmlns="http://www.w3.org/2000/svg" xmlns:xlink="http://www.w3.org/1999/xlink">
	<desc>
			Created with Pixso.
	</desc>
	<defs/>
	<circle id="Ellipse 14" cx="23.788086" cy="66.194580" r="23.788406" fill="#DADADA" fill-opacity="1.000000"/>
	<path id="Star 13" d="M74.25 1.46L73.32 4.3C73.26 4.51 73.06 4.65 72.85 4.65L69.86 4.65C69.37 4.65 69.17 5.27 69.57 5.55L71.98 7.31C72.16 7.43 72.23 7.66 72.16 7.87L71.24 10.71C71.09 11.17 71.62 11.55 72.01 11.27L74.43 9.51C74.6 9.38 74.84 9.38 75.02 9.51L77.43 11.27C77.83 11.55 78.35 11.17 78.2 10.71L77.28 7.87C77.21 7.66 77.29 7.43 77.46 7.31L79.88 5.55C80.27 5.27 80.07 4.65 79.59 4.65L76.6 4.65C76.38 4.65 76.19 4.51 76.12 4.3L75.2 1.46C75.05 1 74.4 1 74.25 1.46Z" fill="#141414" fill-opacity="1.000000" fill-rule="evenodd"/>
	<path id="Polygon 1" d="M15.96 43.98L8.41 36.44C8.14 36.17 7.67 36.29 7.58 36.66L4.81 46.97C4.71 47.34 5.05 47.68 5.42 47.58L15.73 44.82C16.11 44.72 16.23 44.26 15.96 43.98Z" fill="#4EAF4E" fill-opacity="1.000000" fill-rule="evenodd"/>
	<circle id="Ellipse 13" cx="93.389648" cy="17.677002" r="7.257034" fill="#DADADA" fill-opacity="1.000000"/>
	<rect id="Rectangle 33" x="28.679688" y="56.427734" width="51.821083" height="8.028477" fill="#4EAF4E" fill-opacity="1.000000"/>
	<path id="Vector" d="M26.22 34.54L82.95 34.54L54.58 17.08L26.22 34.54Z" fill="#FFCC4A" fill-opacity="1.000000" fill-rule="nonzero"/>
	<path id="Vector" d="M82.95 34.54L54.58 17.08L26.22 34.54L82.95 34.54Z" stroke="#141414" stroke-opacity="1.000000" stroke-width="2.000000" stroke-linejoin="round"/>
	<path id="Vector" d="M34.95 34.54L34.95 56.36" stroke="#141414" stroke-opacity="1.000000" stroke-width="2.000000" stroke-linejoin="round" stroke-linecap="round"/>
	<path id="Vector" d="M48.04 34.54L48.04 56.36" stroke="#141414" stroke-opacity="1.000000" stroke-width="2.000000" stroke-linejoin="round" stroke-linecap="round"/>
	<path id="Vector" d="M61.13 34.54L61.13 56.36" stroke="#141414" stroke-opacity="1.000000" stroke-width="2.000000" stroke-linejoin="round" stroke-linecap="round"/>
	<path id="Vector" d="M74.22 34.54L74.22 56.36" stroke="#141414" stroke-opacity="1.000000" stroke-width="2.000000" stroke-linejoin="round" stroke-linecap="round"/>
	<path id="Vector" d="M28.4 56.36L80.77 56.36" stroke="#141414" stroke-opacity="1.000000" stroke-width="2.000000" stroke-linejoin="round" stroke-linecap="round"/>
	<path id="Vector" d="M24.04 65.09L85.13 65.09" stroke="#141414" stroke-opacity="1.000000" stroke-width="2.000000" stroke-linejoin="round" stroke-linecap="round"/>
</svg>
