<svg width="43.535156" height="43.535156" viewBox="0 0 43.5352 43.5352" fill="none" xmlns="http://www.w3.org/2000/svg" xmlns:xlink="http://www.w3.org/1999/xlink">
	<desc>
			Created with Pixso.
	</desc>
	<defs/>
	<circle id="Background" cx="21.767578" cy="21.767578" r="21.767578" fill="#4EAF4E" fill-opacity="1.000000"/>
	<path id="Icon" d="M18.9 21.9L24.42 21.9" stroke="#0D0D0D" stroke-opacity="1.000000" stroke-width="1.000000" stroke-linejoin="round" stroke-linecap="round"/>
	<path id="Icon" d="M18.9 24.66L24.42 24.66" stroke="#0D0D0D" stroke-opacity="1.000000" stroke-width="1.000000" stroke-linejoin="round" stroke-linecap="round"/>
	<path id="Icon" d="M27.87 14.32C28.05 14.32 28.23 14.39 28.36 14.52C28.49 14.65 28.56 14.82 28.56 15.01L28.56 28.11C28.56 28.66 28.34 29.18 27.95 29.57C27.56 29.96 27.04 30.18 26.49 30.18L16.83 30.18C16.29 30.18 15.76 29.96 15.37 29.57C14.98 29.18 14.77 28.66 14.77 28.11L14.77 15.01C14.77 14.82 14.84 14.65 14.97 14.52C15.1 14.39 15.27 14.32 15.46 14.32L27.87 14.32Z" stroke="#0D0D0D" stroke-opacity="1.000000" stroke-width="1.000000" stroke-linejoin="round"/>
	<path id="Icon" d="M17.52 12.94L17.52 15.7" stroke="#0D0D0D" stroke-opacity="1.000000" stroke-width="1.000000" stroke-linejoin="round" stroke-linecap="round"/>
	<path id="Icon" d="M21.66 12.94L21.66 15.7" stroke="#0D0D0D" stroke-opacity="1.000000" stroke-width="1.000000" stroke-linejoin="round" stroke-linecap="round"/>
	<path id="Icon" d="M25.8 12.94L25.8 15.7" stroke="#0D0D0D" stroke-opacity="1.000000" stroke-width="1.000000" stroke-linejoin="round" stroke-linecap="round"/>
</svg>
