<svg width="29.739258" height="28.906738" viewBox="0 0 29.7393 28.9067" fill="none" xmlns="http://www.w3.org/2000/svg" xmlns:xlink="http://www.w3.org/1999/xlink">
	<desc>
			Created with Pixso.
	</desc>
	<defs/>
	<path id="Union" d="M26.96 21.45C28.49 21.45 29.73 20.2 29.73 18.67L29.73 2.77C29.73 1.24 28.49 0 26.96 0L2.77 0C1.24 0 0 1.24 0 2.77L0 18.67C0 20.2 1.24 21.45 2.77 21.45L14.1 21.45C14.1 21.45 14.1 21.45 14.11 21.46L21.28 28.63C21.86 29.21 22.86 28.8 22.86 27.97L22.86 21.45L26.96 21.45Z" fill="#FFCC4A" fill-opacity="1.000000" fill-rule="nonzero"/>
	<rect id="Rectangle 15" x="7.569336" y="13.633301" rx="0.775175" width="13.869875" height="1.550351" fill="#1B1B1B" fill-opacity="1.000000"/>
	<rect id="Rectangle 16" x="7.569336" y="9.639160" rx="0.775175" width="13.869875" height="1.550351" fill="#1B1B1B" fill-opacity="1.000000"/>
	<rect id="Rectangle 17" x="7.569336" y="6.058594" rx="0.775175" width="13.869875" height="1.550351" fill="#1B1B1B" fill-opacity="1.000000"/>
</svg>
