<svg width="190.498047" height="94.213623" viewBox="0 0 190.498 94.2136" fill="none" xmlns="http://www.w3.org/2000/svg" xmlns:xlink="http://www.w3.org/1999/xlink">
	<desc>
			Created with Pixso.
	</desc>
	<defs/>
	<path id="50+" d="M46.37 54.2Q47.76 54.86 49.46 54.86Q51.11 54.86 52.48 54.23Q53 53.99 53.48 53.66Q53.71 53.51 53.93 53.33Q55.35 52.18 56.17 50.29Q57.13 48.1 57.13 45.24Q57.13 42.51 56.17 40.4Q55.42 38.72 54.15 37.63Q53.84 37.35 53.48 37.12Q53.02 36.8 52.51 36.56Q51.13 35.93 49.46 35.93Q47.86 35.93 46.52 36.52Q45.97 36.76 45.45 37.1Q45.18 37.29 44.93 37.49Q43.56 38.6 42.75 40.39Q41.79 42.51 41.79 45.24Q41.79 48.1 42.75 50.29Q43.63 52.28 45.15 53.45Q45.29 53.56 45.44 53.66Q45.89 53.97 46.37 54.2ZM36.63 44.02Q35.17 43.06 33.08 43.06Q32.35 43.06 31.73 43.13L32.17 39.52L38.04 39.52L38.25 36.3L29.67 36.3L28.5 46.15Q30.45 45.79 31.91 45.79Q33.75 45.79 34.75 46.59Q35.12 46.89 35.35 47.26Q35.76 47.92 35.76 48.83Q35.76 49.73 35.35 50.38Q35.16 50.68 34.88 50.93Q34.81 51 34.74 51.06Q33.89 51.72 32.53 51.72Q31.39 51.72 30.4 51.37Q29.41 51.01 28.37 50.36L27.59 53.38Q28.05 53.69 28.55 53.94Q30.34 54.83 32.58 54.83Q34.46 54.83 35.9 54.11Q36.74 53.68 37.37 53.05Q37.82 52.59 38.16 52.03L38.16 52.02Q38.98 50.67 38.98 48.83Q38.98 46.75 38.01 45.36Q37.72 44.95 37.36 44.61Q37.01 44.28 36.63 44.02ZM51.15 51.5Q50.39 51.87 49.46 51.87Q48.54 51.87 47.79 51.51Q46.93 51.1 46.3 50.22Q45.12 48.57 45.12 45.24Q45.12 42.12 46.31 40.49Q46.96 39.61 47.84 39.21Q48.57 38.87 49.46 38.87Q50.35 38.87 51.09 39.21Q51.95 39.61 52.6 40.49Q53.8 42.12 53.8 45.24Q53.8 48.59 52.61 50.23Q51.99 51.09 51.15 51.5ZM59.68 48.52L63.16 48.52L63.16 52L65.81 52L65.81 48.52L69.29 48.52L69.29 46.07L65.81 46.07L65.81 42.59L63.16 42.59L63.16 46.07L59.68 46.07L59.68 48.52Z" fill="#181818" fill-opacity="1.000000" fill-rule="evenodd"/>
	<path id="Market Experiences" d="M136.45 35.08L136.45 28.28L134.47 28.28L134.47 40.16L136.45 40.16L136.45 36.4L136.89 36.4Q137.13 36.4 137.25 36.46Q137.37 36.51 137.49 36.7L139.58 39.81Q139.69 40.01 139.85 40.08Q139.86 40.09 139.86 40.09Q140.03 40.16 140.26 40.16L142.04 40.16L139.31 36.18Q139.19 35.99 139.06 35.83Q139 35.77 138.95 35.71Q138.86 35.63 138.76 35.55Q139.08 35.36 139.35 35L141.9 31.96L140.1 31.96Q139.85 31.96 139.69 32.04Q139.53 32.13 139.4 32.3L137.36 34.82Q137.25 34.98 137.13 35.03Q137.01 35.08 136.81 35.08L136.45 35.08ZM118.33 40.16L118.33 28.6L116.7 28.6Q116.56 28.6 116.45 28.6Q116.35 28.61 116.26 28.64Q116.18 28.67 116.11 28.75Q116.04 28.82 115.97 28.94L112.56 35.35Q112.42 35.6 112.3 35.88Q112.18 36.15 112.07 36.45Q111.96 36.16 111.84 35.89Q111.72 35.62 111.59 35.36L108.13 28.94Q108.06 28.82 107.99 28.75Q107.94 28.68 107.87 28.65Q107.85 28.65 107.84 28.64Q107.76 28.61 107.65 28.6Q107.55 28.6 107.4 28.6L105.78 28.6L105.78 40.16L107.68 40.16L107.68 32.69Q107.68 32.47 107.66 32.22Q107.65 31.96 107.62 31.7L111.16 38.29Q111.29 38.54 111.49 38.66Q111.68 38.76 111.92 38.76L112.22 38.76Q112.45 38.76 112.63 38.66Q112.85 38.55 112.98 38.29L116.48 31.72Q116.43 32.24 116.43 32.69L116.43 40.16L118.33 40.16ZM152.31 39.83Q152.87 40.29 153.8 40.29Q154.24 40.29 154.66 40.19Q154.81 40.16 154.96 40.11Q155.43 39.95 155.81 39.68Q155.89 39.62 155.96 39.56L155.37 38.6Q155.3 38.51 155.25 38.47Q155.19 38.43 155.1 38.43Q155.03 38.43 154.96 38.47Q154.89 38.51 154.79 38.56Q154.7 38.61 154.58 38.65Q154.45 38.7 154.27 38.7Q154.04 38.7 153.88 38.59Q153.81 38.55 153.75 38.48Q153.57 38.27 153.57 37.88L153.57 33.44L155.76 33.44L155.76 32.03L153.57 32.03L153.57 29.44L152.54 29.44Q152.38 29.44 152.27 29.52Q152.26 29.53 152.25 29.53Q152.23 29.55 152.21 29.57Q152.13 29.65 152.1 29.78L151.69 32.02L150.37 32.23L150.37 33.02Q150.37 33.21 150.46 33.32Q150.47 33.32 150.48 33.33Q150.53 33.38 150.58 33.4Q150.66 33.44 150.75 33.44L151.59 33.44L151.59 38.02Q151.59 38.99 152.07 39.58Q152.11 39.64 152.16 39.69Q152.23 39.77 152.31 39.83ZM121.51 32.23Q120.8 32.54 120.19 33.1L120.54 33.73Q120.54 33.73 120.54 33.73Q120.63 33.87 120.77 33.98Q120.8 34 120.83 34.02Q120.96 34.09 121.12 34.09Q121.31 34.09 121.46 34.03Q121.51 34.01 121.56 33.98Q121.76 33.87 122 33.73Q122.24 33.59 122.55 33.47Q122.87 33.36 123.35 33.36Q123.89 33.36 124.22 33.62Q124.3 33.68 124.37 33.76Q124.72 34.15 124.72 34.98L124.72 35.46Q123.78 35.48 123.05 35.6Q122.33 35.71 121.78 35.9Q121.23 36.08 120.85 36.33Q120.48 36.58 120.24 36.86Q120.01 37.14 119.9 37.45Q119.8 37.76 119.8 38.06Q119.8 38.62 119.97 39.04Q120.11 39.36 120.33 39.59Q120.39 39.67 120.47 39.73Q120.79 40.01 121.23 40.15Q121.67 40.29 122.19 40.29Q122.63 40.29 122.99 40.21Q123.36 40.14 123.68 39.99Q124 39.85 124.29 39.64Q124.59 39.43 124.9 39.15L125.08 39.74Q125.17 39.99 125.32 40.08Q125.47 40.16 125.75 40.16L126.64 40.16L126.64 34.98Q126.64 34.28 126.44 33.7Q126.25 33.16 125.91 32.77Q125.88 32.73 125.84 32.7Q125.79 32.64 125.74 32.59Q125.38 32.24 124.88 32.04Q124.32 31.8 123.6 31.8Q122.46 31.8 121.51 32.23ZM131.28 32.22Q130.75 32.64 130.37 33.38L130.24 32.45Q130.21 32.17 130.08 32.06Q129.97 31.96 129.66 31.96L128.5 31.96L128.5 40.16L130.48 40.16L130.48 35.11Q130.62 34.78 130.77 34.53Q130.92 34.27 131.13 34.09Q131.26 33.97 131.42 33.88Q131.5 33.84 131.59 33.81Q131.85 33.71 132.17 33.71Q132.4 33.71 132.63 33.76Q132.87 33.79 132.99 33.79Q133.12 33.79 133.19 33.74Q133.27 33.67 133.31 33.53L133.44 32.05Q133.09 31.8 132.53 31.8Q132.07 31.8 131.69 31.97Q131.47 32.07 131.28 32.22ZM144.35 37.4Q144.17 36.94 144.13 36.31L149.2 36.31Q149.44 36.31 149.54 36.19Q149.56 36.17 149.57 36.15Q149.67 35.99 149.67 35.54Q149.67 34.66 149.4 33.97Q149.13 33.28 148.66 32.8Q148.53 32.67 148.4 32.56Q148.01 32.26 147.53 32.08Q146.88 31.83 146.1 31.83Q145.18 31.83 144.45 32.15Q143.81 32.43 143.33 32.88Q143.27 32.95 143.21 33.01Q143.14 33.09 143.08 33.16Q142.66 33.66 142.43 34.3Q142.16 35.04 142.16 35.88Q142.16 36.96 142.47 37.78Q142.78 38.6 143.32 39.16Q143.55 39.39 143.81 39.57Q144.17 39.83 144.6 40Q145.34 40.28 146.2 40.28Q146.63 40.28 147.09 40.22Q147.25 40.2 147.4 40.16Q147.7 40.1 147.99 40Q148.05 39.98 148.11 39.96Q148.49 39.81 148.84 39.58Q148.88 39.56 148.92 39.54Q149.28 39.29 149.58 38.94L149.01 38.22Q148.97 38.15 148.91 38.11Q148.81 38.03 148.64 38.03Q148.46 38.03 148.27 38.15Q148.07 38.26 147.81 38.4Q147.55 38.53 147.2 38.64Q146.85 38.76 146.37 38.76Q145.89 38.76 145.5 38.61Q145.28 38.53 145.09 38.4Q144.94 38.29 144.81 38.16Q144.52 37.86 144.35 37.4ZM147.78 34.39Q147.89 34.73 147.89 35.12L144.16 35.12Q144.3 34.22 144.79 33.73Q144.87 33.65 144.96 33.58Q145.42 33.24 146.14 33.24Q146.58 33.24 146.91 33.39Q147.21 33.52 147.41 33.74Q147.44 33.76 147.46 33.79Q147.47 33.81 147.48 33.82Q147.68 34.06 147.78 34.39ZM123.28 36.81Q123.86 36.7 124.72 36.66L124.72 38.04Q124.29 38.49 123.85 38.71Q123.41 38.93 122.8 38.93Q122.3 38.93 121.99 38.71Q121.95 38.68 121.91 38.64Q121.69 38.41 121.69 37.96Q121.69 37.84 121.72 37.73Q121.76 37.6 121.84 37.47Q121.99 37.25 122.34 37.08Q122.69 36.92 123.28 36.81ZM148.89 53.89Q148.94 53.73 148.94 53.56Q148.94 53.38 148.89 53.22Q148.87 53.14 148.84 53.07Q148.75 52.88 148.62 52.73Q148.59 52.7 148.56 52.67Q148.52 52.63 148.49 52.6Q148.34 52.48 148.16 52.4Q148.11 52.38 148.07 52.37Q147.88 52.3 147.66 52.3Q147.52 52.3 147.39 52.33Q147.28 52.35 147.18 52.4Q147 52.48 146.86 52.59Q146.82 52.63 146.78 52.67Q146.61 52.83 146.51 53.07Q146.49 53.12 146.47 53.17Q146.42 53.36 146.42 53.56Q146.42 53.76 146.47 53.94Q146.49 53.99 146.51 54.04Q146.59 54.21 146.7 54.34Q146.74 54.39 146.78 54.44Q146.81 54.46 146.84 54.49Q146.99 54.62 147.18 54.71Q147.27 54.75 147.37 54.77Q147.51 54.8 147.66 54.8Q147.89 54.8 148.1 54.73Q148.13 54.72 148.16 54.71Q148.36 54.62 148.51 54.48Q148.53 54.46 148.56 54.44Q148.64 54.36 148.7 54.27Q148.78 54.17 148.84 54.04Q148.87 53.97 148.89 53.89ZM107.94 57.51L107.94 54.31L113.08 54.31L113.08 52.6L105.78 52.6L105.78 64.16L113.08 64.16L113.08 62.44L107.94 62.44L107.94 59.17L111.99 59.17L111.99 57.51L107.94 57.51ZM125.8 56.29Q125.3 56.61 124.89 57.07L124.73 56.31Q124.67 56.14 124.55 56.05Q124.42 55.96 124.23 55.96L123.02 55.96L123.02 66.84L125 66.84L125 63.48Q125.2 63.68 125.44 63.84Q125.64 63.97 125.87 64.07Q126.36 64.28 127.05 64.28Q127.83 64.28 128.47 63.97Q128.49 63.97 128.51 63.96Q128.81 63.81 129.07 63.61Q129.37 63.37 129.62 63.06Q130.08 62.48 130.32 61.7Q130.57 60.92 130.57 59.99Q130.57 58.99 130.35 58.21Q130.14 57.43 129.73 56.9Q129.4 56.45 128.96 56.19Q128.87 56.13 128.77 56.08Q128.68 56.04 128.6 56Q128.11 55.8 127.54 55.8Q126.68 55.8 126.04 56.15Q125.92 56.22 125.8 56.29ZM143.43 56.22Q142.9 56.64 142.52 57.38L142.4 56.45Q142.36 56.17 142.24 56.06Q142.12 55.96 141.81 55.96L140.65 55.96L140.65 64.16L142.63 64.16L142.63 59.11Q142.77 58.78 142.92 58.53Q143.08 58.27 143.28 58.09Q143.42 57.97 143.57 57.88Q143.65 57.84 143.74 57.81Q144 57.71 144.33 57.71Q144.55 57.71 144.78 57.76Q145.02 57.79 145.14 57.79Q145.27 57.79 145.35 57.74Q145.42 57.67 145.46 57.53L145.59 56.05Q145.24 55.8 144.68 55.8Q144.22 55.8 143.84 55.97Q143.62 56.07 143.43 56.22ZM133.85 61.4Q133.68 60.94 133.63 60.31L138.71 60.31Q138.94 60.31 139.05 60.19Q139.06 60.17 139.07 60.15Q139.17 59.99 139.17 59.54Q139.17 58.66 138.9 57.97Q138.64 57.28 138.16 56.8Q138.04 56.67 137.9 56.56Q137.52 56.26 137.03 56.08Q136.38 55.83 135.61 55.83Q134.68 55.83 133.95 56.15Q133.31 56.43 132.84 56.88Q132.77 56.95 132.71 57.01Q132.64 57.09 132.58 57.16Q132.17 57.66 131.93 58.3Q131.66 59.04 131.66 59.88Q131.66 60.96 131.97 61.78Q132.28 62.6 132.83 63.16Q133.06 63.39 133.32 63.57Q133.68 63.83 134.11 64Q134.84 64.28 135.7 64.28Q136.13 64.28 136.59 64.22Q136.75 64.2 136.91 64.16Q137.21 64.1 137.5 64Q137.55 63.98 137.61 63.96Q137.99 63.81 138.35 63.58Q138.39 63.56 138.42 63.54Q138.79 63.29 139.09 62.94L138.52 62.22Q138.47 62.15 138.42 62.11Q138.31 62.03 138.15 62.03Q137.97 62.03 137.77 62.15Q137.57 62.26 137.31 62.4Q137.06 62.53 136.7 62.64Q136.36 62.76 135.88 62.76Q135.4 62.76 135 62.61Q134.78 62.53 134.6 62.4Q134.45 62.29 134.32 62.16Q134.03 61.86 133.85 61.4ZM152.43 61.4Q152.25 60.94 152.21 60.31L157.28 60.31Q157.52 60.31 157.62 60.19Q157.64 60.17 157.65 60.15Q157.75 59.99 157.75 59.54Q157.75 58.66 157.48 57.97Q157.21 57.28 156.74 56.8Q156.62 56.67 156.48 56.56Q156.09 56.26 155.61 56.08Q154.96 55.83 154.18 55.83Q153.26 55.83 152.53 56.15Q151.89 56.43 151.41 56.88Q151.35 56.95 151.29 57.01Q151.22 57.09 151.16 57.16Q150.74 57.66 150.51 58.3Q150.24 59.04 150.24 59.88Q150.24 60.96 150.55 61.78Q150.86 62.6 151.4 63.16Q151.63 63.39 151.89 63.57Q152.25 63.83 152.68 64Q153.42 64.28 154.28 64.28Q154.71 64.28 155.17 64.22Q155.33 64.2 155.48 64.16Q155.78 64.1 156.07 64Q156.13 63.98 156.19 63.96Q156.57 63.81 156.92 63.58Q156.96 63.56 157 63.54Q157.36 63.29 157.66 62.94L157.09 62.22Q157.05 62.15 156.99 62.11Q156.89 62.03 156.73 62.03Q156.54 62.03 156.35 62.15Q156.15 62.26 155.89 62.4Q155.63 62.53 155.28 62.64Q154.93 62.76 154.45 62.76Q153.98 62.76 153.58 62.61Q153.36 62.53 153.17 62.4Q153.02 62.29 152.89 62.16Q152.6 61.86 152.43 61.4ZM161.51 56.58Q161.28 56.76 161.08 56.96L160.94 56.31Q160.88 56.14 160.76 56.05Q160.63 55.96 160.44 55.96L159.23 55.96L159.23 64.16L161.21 64.16L161.21 58.22Q161.61 57.83 162.05 57.6Q162.24 57.5 162.44 57.44Q162.72 57.36 163.02 57.36Q163.61 57.36 163.94 57.65Q164.01 57.71 164.06 57.78Q164.41 58.19 164.41 58.94L164.41 64.16L166.38 64.16L166.38 58.94Q166.38 58.25 166.2 57.68Q166.02 57.11 165.67 56.7Q165.58 56.58 165.47 56.48Q165.18 56.22 164.8 56.06Q164.28 55.83 163.61 55.83Q163.2 55.83 162.84 55.91Q162.49 55.99 162.18 56.14Q161.88 56.29 161.6 56.5Q161.55 56.54 161.51 56.58ZM173.96 57.87Q174.05 57.8 174.13 57.69L174.65 56.97Q174.24 56.56 173.76 56.29Q173.59 56.2 173.41 56.12Q172.72 55.83 171.8 55.83Q170.83 55.83 170.08 56.15Q169.46 56.41 169.01 56.85Q168.92 56.94 168.84 57.03Q168.82 57.05 168.8 57.07Q168.32 57.62 168.07 58.37Q167.81 59.14 167.81 60.04Q167.81 61.05 168.11 61.84Q168.4 62.63 168.9 63.17Q169.2 63.49 169.55 63.72Q169.8 63.88 170.08 64Q170.26 64.07 170.44 64.13Q170.95 64.28 171.51 64.28Q171.94 64.28 172.38 64.22Q172.66 64.18 172.92 64.1Q173.08 64.05 173.22 64Q173.64 63.84 174.02 63.58Q174.41 63.32 174.73 62.94L174.16 62.22Q174.12 62.15 174.06 62.1Q173.95 62.03 173.8 62.03Q173.73 62.03 173.65 62.05Q173.56 62.08 173.47 62.15Q173.32 62.27 173.13 62.41Q172.93 62.54 172.63 62.66Q172.34 62.78 171.87 62.78Q171.4 62.78 171.02 62.6Q170.92 62.55 170.83 62.49Q170.57 62.33 170.38 62.07Q170.12 61.72 169.98 61.21Q169.84 60.7 169.84 60.04Q169.84 59.41 169.97 58.91Q170.09 58.41 170.35 58.06Q170.5 57.86 170.68 57.72Q170.83 57.6 171 57.52Q171.4 57.33 171.92 57.33Q172.32 57.33 172.6 57.42Q172.88 57.51 173.08 57.63Q173.28 57.75 173.42 57.84Q173.55 57.92 173.67 57.93Q173.7 57.93 173.72 57.93Q173.88 57.93 173.96 57.87ZM177.56 61.4Q177.39 60.94 177.34 60.31L182.42 60.31Q182.66 60.31 182.76 60.19Q182.77 60.17 182.79 60.15Q182.88 59.99 182.88 59.54Q182.88 58.66 182.62 57.97Q182.35 57.28 181.88 56.8Q181.75 56.67 181.61 56.56Q181.23 56.26 180.75 56.08Q180.09 55.83 179.32 55.83Q178.4 55.83 177.67 56.15Q177.02 56.43 176.55 56.88Q176.49 56.95 176.42 57.01Q176.36 57.09 176.29 57.16Q175.88 57.66 175.64 58.3Q175.37 59.04 175.37 59.88Q175.37 60.96 175.69 61.78Q176 62.6 176.54 63.16Q176.77 63.39 177.03 63.57Q177.39 63.83 177.82 64Q178.56 64.28 179.41 64.28Q179.85 64.28 180.31 64.22Q180.46 64.2 180.62 64.16Q180.92 64.1 181.21 64Q181.27 63.98 181.32 63.96Q181.71 63.81 182.06 63.58Q182.1 63.56 182.13 63.54Q182.5 63.29 182.8 62.94L182.23 62.22Q182.19 62.15 182.13 62.11Q182.02 62.03 181.86 62.03Q181.68 62.03 181.48 62.15Q181.29 62.26 181.03 62.4Q180.77 62.53 180.42 62.64Q180.07 62.76 179.59 62.76Q179.11 62.76 178.71 62.61Q178.49 62.53 178.31 62.4Q178.16 62.29 178.03 62.16Q177.74 61.86 177.56 61.4ZM189.2 57.74Q189.29 57.68 189.37 57.55L189.82 56.84Q189.36 56.38 188.66 56.11Q187.96 55.83 187.12 55.83Q186.36 55.83 185.78 56.03Q185.2 56.23 184.81 56.58Q184.55 56.8 184.37 57.08Q184.29 57.22 184.22 57.37Q184.14 57.55 184.1 57.74Q184.02 58.02 184.02 58.33Q184.02 58.87 184.19 59.26Q184.37 59.64 184.65 59.91Q184.67 59.93 184.7 59.95Q184.96 60.18 185.3 60.34Q185.66 60.51 186.04 60.64Q186.42 60.77 186.78 60.88Q187.15 60.99 187.43 61.12Q187.72 61.26 187.89 61.44Q187.93 61.49 187.96 61.54Q188.06 61.7 188.06 61.92Q188.06 61.98 188.05 62.05Q188.03 62.17 187.98 62.29Q187.98 62.31 187.97 62.32Q187.89 62.48 187.75 62.6Q187.58 62.74 187.33 62.82Q187.08 62.9 186.73 62.9Q186.28 62.9 185.98 62.8Q185.69 62.7 185.48 62.58Q185.26 62.46 185.1 62.36Q184.98 62.28 184.86 62.26Q184.81 62.25 184.75 62.25Q184.57 62.25 184.44 62.32Q184.33 62.39 184.24 62.53L183.78 63.28Q184.02 63.5 184.34 63.68Q184.66 63.87 185.03 64Q185.4 64.14 185.8 64.21Q186.21 64.29 186.63 64.29Q187.43 64.29 188.04 64.09Q188.66 63.88 189.07 63.52Q189.32 63.3 189.5 63.03Q189.61 62.85 189.7 62.65Q189.91 62.15 189.91 61.56Q189.91 61.06 189.74 60.71Q189.62 60.47 189.44 60.27Q189.37 60.19 189.28 60.11Q189 59.86 188.64 59.69Q188.28 59.53 187.91 59.4Q187.53 59.28 187.17 59.17Q186.82 59.06 186.53 58.92Q186.25 58.79 186.07 58.61Q186.01 58.54 185.97 58.46Q185.9 58.33 185.9 58.16Q185.9 57.98 185.97 57.83Q186.05 57.65 186.23 57.52Q186.57 57.27 187.15 57.27Q187.53 57.27 187.8 57.35Q188.08 57.43 188.29 57.53Q188.51 57.63 188.67 57.71Q188.84 57.79 188.98 57.79Q189.12 57.79 189.2 57.74ZM120.09 64.16L122 64.16L119.19 59.84L121.88 55.96L120.07 55.96Q119.99 55.96 119.92 55.98Q119.74 56.04 119.62 56.25L118.23 58.41Q118.07 58.67 117.98 58.95L116.26 56.21Q116.18 56.07 116.08 56.01Q115.97 55.96 115.76 55.96L113.85 55.96L116.56 59.93L113.74 64.16L115.51 64.16Q115.65 64.16 115.75 64.1Q115.79 64.08 115.83 64.05Q115.96 63.93 116.05 63.79L117.58 61.42Q117.65 61.31 117.7 61.19Q117.75 61.07 117.79 60.94L119.53 63.79Q119.56 63.85 119.6 63.91Q119.67 63.98 119.74 64.05Q119.75 64.06 119.76 64.06Q119.89 64.16 120.09 64.16ZM148.67 64.16L148.67 55.96L146.68 55.96L146.68 64.16L148.67 64.16ZM137.29 58.39Q137.4 58.73 137.4 59.12L133.67 59.12Q133.81 58.22 134.3 57.73Q134.38 57.65 134.47 57.58Q134.93 57.24 135.64 57.24Q136.09 57.24 136.42 57.39Q136.71 57.52 136.91 57.74Q136.94 57.76 136.97 57.79Q136.98 57.81 136.98 57.82Q137.19 58.06 137.29 58.39ZM155.87 58.39Q155.98 58.73 155.98 59.12L152.24 59.12Q152.38 58.22 152.87 57.73Q152.95 57.65 153.04 57.58Q153.5 57.24 154.22 57.24Q154.66 57.24 154.99 57.39Q155.29 57.52 155.49 57.74Q155.52 57.76 155.54 57.79Q155.55 57.81 155.56 57.82Q155.76 58.06 155.87 58.39ZM181 58.39Q181.11 58.73 181.11 59.12L177.38 59.12Q177.52 58.22 178.01 57.73Q178.09 57.65 178.18 57.58Q178.64 57.24 179.36 57.24Q179.8 57.24 180.13 57.39Q180.42 57.52 180.63 57.74Q180.65 57.76 180.68 57.79Q180.69 57.81 180.7 57.82Q180.9 58.06 181 58.39ZM125.73 62.61Q125.33 62.44 125 62.03L125 58.35Q125.38 57.88 125.81 57.62Q126.24 57.36 126.86 57.36Q127.25 57.36 127.56 57.51Q127.6 57.52 127.64 57.54Q127.9 57.69 128.08 57.96Q128.3 58.28 128.42 58.78Q128.53 59.28 128.53 59.99Q128.53 60.71 128.4 61.23Q128.26 61.76 128.01 62.1Q127.81 62.36 127.56 62.53Q127.48 62.57 127.4 62.61Q127.04 62.78 126.59 62.78Q126.13 62.78 125.74 62.62Q125.73 62.61 125.73 62.61Z" fill="#181818" fill-opacity="1.000000" fill-rule="evenodd"/>
	<path id="Ellipse 9" d="M77.37 11.02C69.18 4.14 58.62 0 47.1 0C36.4 0 25.65 3.61 16.83 11.02C8.63 17.89 2.71 27.58 0.72 38.92C-1.14 49.46 0.55 60.67 6.32 70.65C11.66 79.91 20.16 87.42 30.99 91.35C41.04 95.02 52.38 95.3 63.21 91.35C73.26 87.7 82.13 80.63 87.88 70.64C93.24 61.38 95.49 50.26 93.48 38.92C91.63 28.39 86.2 18.42 77.37 11.02ZM19.86 14.63C27.23 8.44 36.73 4.71 47.1 4.71C56.73 4.71 66.41 7.96 74.34 14.63C81.72 20.82 87.05 29.53 88.84 39.74C90.52 49.22 89 59.32 83.8 68.29C79 76.63 71.34 83.39 61.59 86.93C52.55 90.23 42.34 90.48 32.6 86.93C23.55 83.64 15.57 77.27 10.39 68.29C5.57 59.96 3.55 49.95 5.36 39.74C7.03 30.26 11.91 21.29 19.86 14.63Z" fill="#F1F1F1" fill-opacity="1.000000" fill-rule="evenodd"/>
	<path id="Ellipse 10" d="M49.45 0.05C61.2 0.63 71.83 5.53 79.77 13.19C88.91 21.97 93.72 33.59 94.16 45.34C94.64 58.01 90.05 69.71 82.21 78.48C73.77 87.95 62.34 93.18 50.61 94.06C37.97 95.02 26.1 90.86 17.04 83.35C7.28 75.27 1.61 64.05 0.3 52.36C-1.03 40.6 2.11 29.36 8.35 20.32C9.09 19.25 10.57 19.06 11.61 19.85C12.64 20.64 12.83 22.11 12.09 23.19C6.16 31.85 3.88 42.04 4.98 51.84C6.25 63.18 11.9 72.97 20.05 79.73C28.83 87.02 39.7 90.16 50.26 89.36C61.64 88.52 71.64 83.24 78.7 75.34C86.31 66.84 89.85 56.1 89.45 45.52C89.04 34.11 84.13 23.92 76.5 16.57C68.9 9.24 59.25 5.32 49.45 4.77C48.15 4.7 47.1 3.65 47.1 2.35C47.1 1.05 48.15 -0.01 49.45 0.05Z" fill="#4EAF4E" fill-opacity="1.000000" fill-rule="evenodd"/>
	<circle id="Ellipse 11" cx="12.183594" cy="19.458740" r="8.189812" fill="#FFFFFF" fill-opacity="1.000000"/>
	<circle id="Ellipse 11" cx="12.183594" cy="19.458740" r="6.189812" stroke="#4EAF4E" stroke-opacity="1.000000" stroke-width="4.000000"/>
</svg>
