<svg width="22.382812" height="22.382324" viewBox="0 0 22.3828 22.3823" fill="none" xmlns="http://www.w3.org/2000/svg" xmlns:xlink="http://www.w3.org/1999/xlink">
	<desc>
			Created with Pixso.
	</desc>
	<defs/>
	<path id="Vector" d="M11.19 0C8.97 0 6.81 0.65 4.97 1.88C3.13 3.11 1.69 4.86 0.85 6.9C0 8.95 -0.22 11.2 0.21 13.37C0.64 15.54 1.71 17.53 3.27 19.1C4.84 20.66 6.83 21.73 9 22.16C11.17 22.59 13.42 22.37 15.47 21.53C17.51 20.68 19.26 19.24 20.49 17.4C21.72 15.56 22.38 13.4 22.38 11.19C22.37 8.22 21.19 5.38 19.09 3.28C17 1.18 14.15 0 11.19 0ZM15.06 7.74C15.32 7.74 15.57 7.82 15.78 7.96C15.99 8.1 16.16 8.3 16.25 8.54C16.35 8.78 16.38 9.04 16.33 9.29C16.28 9.54 16.15 9.77 15.97 9.95C15.79 10.13 15.56 10.25 15.31 10.3C15.06 10.35 14.8 10.32 14.57 10.23C14.33 10.13 14.13 9.96 13.99 9.75C13.84 9.54 13.77 9.29 13.77 9.03C13.77 8.69 13.91 8.36 14.15 8.12C14.39 7.88 14.72 7.74 15.06 7.74ZM7.31 7.74C7.57 7.74 7.82 7.82 8.03 7.96C8.24 8.1 8.41 8.3 8.51 8.54C8.6 8.78 8.63 9.04 8.58 9.29C8.53 9.54 8.41 9.77 8.23 9.95C8.04 10.13 7.81 10.25 7.56 10.3C7.31 10.35 7.05 10.32 6.82 10.23C6.58 10.13 6.38 9.96 6.24 9.75C6.1 9.54 6.02 9.29 6.02 9.03C6.02 8.69 6.16 8.36 6.4 8.12C6.64 7.88 6.97 7.74 7.31 7.74ZM16.41 14.2C15.88 15.12 15.12 15.88 14.2 16.41C13.28 16.93 12.24 17.21 11.19 17.21C10.13 17.21 9.09 16.93 8.17 16.41C7.26 15.88 6.5 15.12 5.97 14.2C5.9 14.1 5.85 13.99 5.83 13.87C5.81 13.76 5.81 13.64 5.84 13.52C5.86 13.41 5.91 13.3 5.98 13.2C6.05 13.11 6.14 13.03 6.24 12.97C6.35 12.91 6.46 12.87 6.58 12.86C6.7 12.84 6.82 12.85 6.93 12.89C7.04 12.92 7.15 12.98 7.24 13.06C7.33 13.14 7.4 13.23 7.45 13.34C7.83 13.99 8.38 14.54 9.03 14.91C9.69 15.29 10.43 15.49 11.19 15.49C11.94 15.49 12.69 15.29 13.34 14.91C14 14.54 14.54 13.99 14.92 13.34C15.04 13.16 15.23 13.03 15.44 12.99C15.65 12.94 15.87 12.97 16.06 13.08C16.25 13.19 16.39 13.37 16.45 13.57C16.52 13.78 16.5 14 16.41 14.2Z" fill="#4EAF4E" fill-opacity="1.000000" fill-rule="nonzero"/>
</svg>
