<svg width="21.801758" height="20.833008" viewBox="0 0 21.8018 20.833" fill="none" xmlns="http://www.w3.org/2000/svg" xmlns:xlink="http://www.w3.org/1999/xlink">
	<desc>
			Created with Pixso.
	</desc>
	<defs/>
	<path id="Star 12" d="M9.95 0.69L8.06 6.5C7.92 6.91 7.54 7.19 7.11 7.19L1 7.19C0.03 7.19 -0.37 8.43 0.41 9L5.35 12.59C5.7 12.84 5.85 13.29 5.71 13.7L3.83 19.51C3.53 20.44 4.58 21.2 5.37 20.63L10.31 17.04C10.66 16.79 11.13 16.79 11.48 17.04L16.43 20.63C17.21 21.2 18.26 20.44 17.96 19.51L16.08 13.7C15.94 13.29 16.09 12.84 16.44 12.59L21.38 9C22.17 8.43 21.76 7.19 20.79 7.19L14.69 7.19C14.25 7.19 13.87 6.91 13.74 6.5L11.85 0.69C11.55 -0.24 10.24 -0.24 9.95 0.69Z" fill="#FFCC4A" fill-opacity="1.000000" fill-rule="evenodd"/>
</svg>
