<svg width="104.875977" height="65.517090" viewBox="0 0 104.876 65.5171" fill="none" xmlns="http://www.w3.org/2000/svg" xmlns:xlink="http://www.w3.org/1999/xlink">
	<desc>
			Created with Pixso.
	</desc>
	<defs/>
	<circle id="Ellipse 14" cx="22.864258" cy="49.959717" r="15.557342" fill="#DADADA" fill-opacity="1.000000"/>
	<path id="Star 13" d="M77.74 1.46L76.78 4.43C76.71 4.64 76.52 4.78 76.3 4.78L73.18 4.78C72.69 4.78 72.49 5.4 72.88 5.68L75.41 7.52C75.59 7.64 75.66 7.87 75.59 8.08L74.63 11.05C74.48 11.51 75.01 11.89 75.4 11.61L77.92 9.77C78.1 9.64 78.34 9.64 78.51 9.77L81.04 11.61C81.43 11.89 81.96 11.51 81.81 11.05L80.84 8.08C80.78 7.87 80.85 7.64 81.03 7.52L83.55 5.68C83.95 5.4 83.74 4.78 83.26 4.78L80.14 4.78C79.92 4.78 79.73 4.64 79.66 4.43L78.69 1.46C78.54 1 77.89 1 77.74 1.46Z" fill="#141414" fill-opacity="1.000000" fill-rule="evenodd"/>
	<path id="Polygon 1" d="M12.11 54.53L6.22 48.64C5.95 48.37 5.48 48.49 5.38 48.86L3.23 56.91C3.13 57.28 3.47 57.62 3.84 57.52L11.88 55.37C12.26 55.27 12.38 54.8 12.11 54.53Z" fill="#4EAF4E" fill-opacity="1.000000" fill-rule="evenodd"/>
	<circle id="Ellipse 13" cx="97.817383" cy="21.404297" r="7.058524" fill="#DADADA" fill-opacity="1.000000"/>
	<path id="Rectangle 31" d="M22.68 28.37L79.17 28.37L79.17 54.44C79.17 55.55 78.28 56.44 77.17 56.44L25.68 56.44C24.02 56.44 22.68 55.1 22.68 53.44L22.68 28.37Z" fill="#FFCC4A" fill-opacity="1.000000" fill-rule="evenodd"/>
	<path id="Rectangle 32" d="M65.78 28.93L21.67 28.93L21.67 20.47C21.67 18.26 23.46 16.47 25.67 16.47L62.78 16.47C64.43 16.47 65.78 17.82 65.78 19.47L65.78 28.93Z" fill="#4EAF4E" fill-opacity="1.000000" fill-rule="evenodd"/>
	<path id="Rectangle 32" d="M21.67 28.93L21.67 20.47C21.67 18.26 23.46 16.47 25.67 16.47L62.78 16.47C64.43 16.47 65.78 17.82 65.78 19.47L65.78 28.93L21.67 28.93ZM23.67 26.93L23.67 20.47C23.67 19.37 24.57 18.47 25.67 18.47L62.78 18.47C63.33 18.47 63.78 18.92 63.78 19.47L63.78 26.93L23.67 26.93Z" fill="#141414" fill-opacity="1.000000" fill-rule="evenodd"/>
	<path id="Vector" d="M76.52 17.21C77.72 17.21 78.69 18.17 78.69 19.37L78.69 54C78.69 55.2 77.72 56.16 76.52 56.16L24.58 56.16C23.38 56.16 22.41 55.2 22.41 54L22.41 19.37C22.41 18.17 23.38 17.21 24.58 17.21L76.52 17.21Z" stroke="#141414" stroke-opacity="1.000000" stroke-width="2.000000" stroke-linejoin="round"/>
	<path id="Vector" d="M61.37 47.51L70.03 47.51" stroke="#141414" stroke-opacity="1.000000" stroke-width="2.000000" stroke-linejoin="round" stroke-linecap="round"/>
	<path id="Vector" d="M48.39 47.51L52.72 47.51" stroke="#141414" stroke-opacity="1.000000" stroke-width="2.000000" stroke-linejoin="round" stroke-linecap="round"/>
	<path id="Vector" d="M22.41 28.27L78.69 28.27" stroke="#141414" stroke-opacity="1.000000" stroke-width="2.000000" stroke-linejoin="round" stroke-linecap="round"/>
</svg>
