<svg width="23.109375" height="23.109863" viewBox="0 0 23.1094 23.1099" fill="none" xmlns="http://www.w3.org/2000/svg" xmlns:xlink="http://www.w3.org/1999/xlink">
	<desc>
			Created with Pixso.
	</desc>
	<defs/>
	<path id="Vector" d="M11.51 16.2C11.66 16.27 11.82 16.3 11.98 16.29C12.15 16.28 12.3 16.22 12.44 16.13L15.38 14.17C15.51 14.08 15.66 14.02 15.82 14.01C15.97 14 16.13 14.02 16.28 14.08L21.78 16.45C21.97 16.53 22.13 16.66 22.23 16.84C22.33 17.02 22.37 17.22 22.35 17.43C22.17 18.79 21.51 20.04 20.48 20.95C19.45 21.85 18.12 22.35 16.75 22.35C12.5 22.35 8.43 20.67 5.43 17.67C2.43 14.67 0.75 10.6 0.75 6.35C0.75 4.98 1.25 3.65 2.15 2.62C3.06 1.59 4.31 0.93 5.67 0.75C5.88 0.73 6.08 0.77 6.26 0.87C6.43 0.97 6.57 1.13 6.65 1.32L9.02 6.84C9.08 6.98 9.1 7.13 9.09 7.29C9.08 7.44 9.03 7.59 8.95 7.72L6.98 10.71C6.89 10.84 6.84 11 6.83 11.16C6.82 11.32 6.85 11.48 6.92 11.62C7.89 13.62 9.51 15.24 11.51 16.2Z" stroke="#181818" stroke-opacity="1.000000" stroke-width="1.500000" stroke-linejoin="round"/>
</svg>
