<svg width="43.535156" height="43.535156" viewBox="0 0 43.5352 43.5352" fill="none" xmlns="http://www.w3.org/2000/svg" xmlns:xlink="http://www.w3.org/1999/xlink">
	<desc>
			Created with Pixso.
	</desc>
	<defs/>
	<circle id="Icon" cx="21.767578" cy="21.767578" r="21.767578" fill="#FFC42B" fill-opacity="1.000000"/>
	<path id="Icon" d="M22.46 25.6C22.57 25.65 22.7 25.68 22.83 25.67C22.95 25.66 23.07 25.61 23.18 25.54L25.46 24.02C25.56 23.95 25.68 23.91 25.8 23.9C25.92 23.89 26.04 23.91 26.15 23.96L30.42 25.79C30.57 25.85 30.69 25.96 30.77 26.1C30.85 26.23 30.88 26.39 30.86 26.55C30.73 27.6 30.21 28.58 29.41 29.28C28.61 29.98 27.58 30.37 26.52 30.37C23.23 30.37 20.07 29.06 17.74 26.74C15.42 24.41 14.11 21.25 14.11 17.96C14.11 16.9 14.5 15.87 15.2 15.07C15.91 14.27 16.88 13.75 17.93 13.62C18.09 13.6 18.25 13.63 18.39 13.71C18.52 13.79 18.63 13.91 18.69 14.06L20.52 18.34C20.57 18.45 20.59 18.56 20.58 18.68C20.57 18.8 20.53 18.92 20.47 19.02L18.95 21.34C18.88 21.44 18.84 21.56 18.83 21.69C18.82 21.81 18.85 21.94 18.9 22.05C19.65 23.6 20.91 24.85 22.46 25.6Z" stroke="#0D0D0D" stroke-opacity="1.000000" stroke-width="1.000000" stroke-linejoin="round"/>
</svg>
