<svg width="52.778320" height="52.777832" viewBox="0 0 52.7783 52.7778" fill="none" xmlns="http://www.w3.org/2000/svg" xmlns:xlink="http://www.w3.org/1999/xlink">
	<desc>
			Created with Pixso.
	</desc>
	<defs/>
	<circle id="Background" cx="26.388672" cy="26.388916" r="26.388947" fill="#181818" fill-opacity="1.000000"/>
	<path id="Pattern" d="M26.35 38.84C19.47 38.84 13.9 33.26 13.9 26.38C13.9 19.5 19.47 13.92 26.35 13.92C33.24 13.92 38.81 19.5 38.81 26.38C38.81 33.26 33.24 38.84 26.35 38.84Z" stroke="#FFFFFF" stroke-opacity="1.000000" stroke-width="2.000000" stroke-linejoin="round"/>
	<path id="Pattern" d="M16.18 33.57L17.7 32.65C17.85 32.55 17.97 32.42 18.06 32.27C18.15 32.11 18.19 31.94 18.19 31.76L18.22 27.08C18.22 26.88 18.28 26.69 18.39 26.53L20.96 22.5C21.03 22.38 21.13 22.28 21.25 22.2C21.37 22.12 21.5 22.06 21.64 22.04C21.78 22.01 21.92 22.01 22.06 22.04C22.2 22.07 22.33 22.13 22.45 22.21L24.99 24.05C25.21 24.21 25.48 24.28 25.74 24.25L29.83 23.69C30.08 23.66 30.31 23.53 30.47 23.34L33.35 20.02C33.52 19.82 33.61 19.56 33.6 19.29L33.45 16.14" stroke="#FFFFFF" stroke-opacity="1.000000" stroke-width="2.000000" stroke-linejoin="round" stroke-linecap="round"/>
	<path id="Pattern" d="M34.02 36.2L32.62 34.8C32.49 34.67 32.33 34.58 32.16 34.53L29.37 33.8C29.12 33.73 28.91 33.58 28.77 33.37C28.63 33.15 28.58 32.9 28.61 32.65L28.91 30.54C28.94 30.37 29.01 30.2 29.13 30.06C29.24 29.92 29.38 29.81 29.55 29.74L33.49 28.09C33.68 28.01 33.88 27.99 34.07 28.03C34.27 28.06 34.45 28.15 34.6 28.29L37.83 31.24" stroke="#FFFFFF" stroke-opacity="1.000000" stroke-width="2.000000" stroke-linejoin="round" stroke-linecap="round"/>
</svg>
