<svg width="240.000000" height="47.000000" viewBox="0 0 240 47" fill="none" xmlns="http://www.w3.org/2000/svg" xmlns:xlink="http://www.w3.org/1999/xlink">
	<desc>
			Created with Pixso.
	</desc>
	<defs/>
	<path id="Brand" d="M179.88 30.39L179.88 9L181.71 9L181.71 37.47L181.52 37.47L159.31 15.6L159.16 15.6L159.16 37L157.32 37L157.32 8.52L157.52 8.52L179.71 30.39L179.88 30.39ZM15.12 37L5.08 37L5.08 9L15.08 9Q17.16 9 18.69 9.62Q20.24 10.24 21.21 11.19Q22.2 12.15 22.68 13.31Q23.16 14.48 23.16 15.6Q23.16 16.26 23.01 16.88Q22.86 17.47 22.59 18.02Q22.34 18.52 22.02 18.97Q21.62 19.54 21.1 20.01Q20.16 20.87 18.92 21.42Q18.59 21.56 18.26 21.66Q17.31 21.96 16.27 21.96L16.27 22.11Q17.16 22.15 18.6 22.4Q20.03 22.64 21.39 23.36Q21.55 23.45 21.7 23.54Q22.87 24.23 23.73 25.44Q24.72 26.8 24.72 29.08Q24.72 29.15 24.72 29.23Q24.69 30.59 24.21 31.94Q24.1 32.24 23.96 32.54Q23.47 33.6 22.59 34.48Q21.48 35.6 19.63 36.3Q17.79 37 15.12 37ZM54.12 37L54.12 9L63.19 9Q65.88 9 67.64 9.74Q69.39 10.47 70.41 11.58Q71.43 12.68 71.85 13.96Q72.27 15.24 72.27 16.31Q72.27 17.51 71.87 18.77Q71.83 18.92 71.78 19.06Q71.37 20.16 70.59 21.12Q69.72 22.19 68.33 22.91Q66.95 23.64 65.04 23.75L65.04 23.92L65.44 24.11Q65.92 24.36 66.25 24.72Q66.59 25.07 67.13 25.87Q67.67 26.67 68.59 28.14Q69.51 29.59 71.2 32.03Q71.76 32.87 72.27 33.54Q72.79 34.19 73.35 34.65Q73.91 35.11 74.55 35.35Q75.19 35.6 76.03 35.6Q76.24 35.6 76.43 35.58Q76.64 35.56 76.83 35.51L76.83 37Q76.28 37.32 75.71 37.4Q75.15 37.47 74.28 37.47Q73.07 37.47 72.22 37.15Q71.36 36.84 70.68 36.31L70.67 36.3Q70 35.75 69.41 34.99Q68.84 34.23 68.23 33.31L65.08 28.64Q64.35 27.51 63.84 26.76Q63.32 26 62.71 25.52Q62.4 25.27 62.05 25.09Q61.73 24.93 61.38 24.84Q60.63 24.63 59.51 24.63L57.75 24.63L57.75 37L54.12 37ZM124.83 37L121 28.75L107.2 28.75L103.67 37L101.84 37L113.67 9L115.67 9L128.71 37L124.83 37ZM214.31 9L214.31 37L224 37Q226.7 37 229.11 36.15Q229.37 36.06 229.63 35.96Q231.75 35.12 233.44 33.75Q233.86 33.41 234.25 33.04Q234.85 32.47 235.37 31.84Q236.58 30.38 237.38 28.58Q238.52 26 238.52 22.91Q238.52 20.37 237.7 18.12Q237.57 17.75 237.42 17.4Q236.69 15.72 235.6 14.35Q235.02 13.62 234.33 12.98Q232.36 11.12 229.59 10.06Q226.84 9 223.52 9L214.31 9ZM8.71 10.75L8.71 21.23L13.52 21.23Q14.68 21.23 15.71 20.86Q15.74 20.85 15.77 20.83Q16.69 20.49 17.42 19.92Q17.54 19.82 17.66 19.72Q18.05 19.37 18.36 18.96Q18.7 18.52 18.94 18Q19.04 17.77 19.12 17.53Q19.4 16.73 19.4 15.83Q19.4 14.91 19.07 14Q18.97 13.71 18.84 13.45Q18.53 12.86 18.05 12.36Q17.36 11.63 16.25 11.19Q15.16 10.75 13.6 10.75L8.71 10.75ZM61.8 10.75L57.75 10.75L57.75 22.83L61.87 22.83Q63.48 22.83 64.7 22.28Q65.92 21.71 66.76 20.81Q67.45 20.07 67.86 19.2Q67.94 19.01 68.02 18.82Q68.44 17.72 68.44 16.63Q68.44 15.35 67.98 14.28Q67.76 13.77 67.45 13.32Q67.1 12.83 66.63 12.41Q65.75 11.63 64.53 11.19Q63.32 10.75 61.8 10.75ZM222.36 35.24L217.95 35.24L217.95 10.75L222.36 10.75Q225.32 10.75 227.59 11.76Q229.79 12.72 231.29 14.32Q231.35 14.39 231.41 14.46Q231.87 14.97 232.27 15.52Q233.19 16.82 233.75 18.38Q234.05 19.21 234.24 20.07Q234.55 21.49 234.55 22.99Q234.55 25.16 233.87 27.34Q233.57 28.3 233.12 29.18Q232.54 30.29 231.71 31.27Q230.24 33.03 227.93 34.13Q225.64 35.24 222.36 35.24ZM107.96 26.96L120.16 26.96L113.88 13.48L113.71 13.48L107.96 26.96ZM8.71 22.99L8.71 35.24L14.51 35.24Q15.79 35.24 16.94 34.86Q17.9 34.53 18.66 33.94Q18.79 33.83 18.92 33.71Q19.11 33.54 19.28 33.35Q19.87 32.71 20.26 31.88Q20.75 30.79 20.75 29.4Q20.75 28.54 20.55 27.74Q20.45 27.34 20.29 26.96Q20.14 26.57 19.94 26.22Q19.52 25.5 18.89 24.91Q17.95 24.04 16.52 23.52Q15.08 22.99 13.12 22.99L8.71 22.99Z" fill="#030211" fill-opacity="1.000000" fill-rule="evenodd"/>
</svg>
