<svg width="246.058594" height="52.625244" viewBox="0 0 246.059 52.6252" fill="none" xmlns="http://www.w3.org/2000/svg" xmlns:xlink="http://www.w3.org/1999/xlink">
	<desc>
			Created with Pixso.
	</desc>
	<defs/>
	<ellipse id="Ellipse 8" cx="123.029297" cy="26.312500" rx="123.029114" ry="26.312622" fill="#030211" fill-opacity="1.000000"/>
	<path id="Fortune" d="M75.02 32.51Q76.16 32.94 77.46 32.94Q78.84 32.94 80.03 32.47Q80.45 32.3 80.84 32.08Q81.54 31.68 82.11 31.13Q82.77 30.5 83.23 29.67Q83.35 29.47 83.45 29.25Q84.11 27.87 84.11 26.17Q84.11 24.5 83.46 23.13Q83.36 22.9 83.23 22.68Q82.76 21.85 82.1 21.21Q81.54 20.67 80.84 20.28Q80.44 20.05 80.01 19.88Q78.83 19.41 77.46 19.41Q76.17 19.41 75.04 19.83Q74.55 20.02 74.1 20.28Q73.46 20.64 72.93 21.12Q72.21 21.79 71.69 22.69Q71.52 22.99 71.38 23.31Q70.81 24.62 70.81 26.17Q70.81 27.75 71.4 29.07Q71.53 29.37 71.69 29.66Q72.2 30.56 72.92 31.22Q73.45 31.71 74.1 32.08Q74.54 32.33 75.02 32.51ZM172.67 32.81L174.4 32.81L174.4 19.55L172.67 19.55L172.67 30.07L165.72 19.55L163.99 19.55L163.99 32.81L165.72 32.81L165.72 22.26L172.67 32.81ZM189.81 25.4L189.81 20.97L195.2 20.97L195.2 19.55L188.08 19.55L188.08 32.81L195.2 32.81L195.2 31.38L189.81 31.38L189.81 26.82L194.64 26.82L194.64 25.4L189.81 25.4ZM58.63 20.97L58.63 19.56L51.15 19.56L51.15 32.81L52.88 32.81L52.88 26.84L57.55 26.84L57.55 25.44L52.88 25.44L52.88 20.97L58.63 20.97ZM100.95 27.39L104.1 32.81L106.17 32.81L102.85 27.26Q104.27 26.95 105.05 26.07Q105.13 25.98 105.21 25.87Q105.52 25.47 105.71 25.01Q106 24.3 106 23.46Q106 22.5 105.62 21.72Q105.56 21.59 105.48 21.47Q105.42 21.35 105.34 21.24Q104.84 20.52 103.94 20.08Q102.91 19.56 101.4 19.56L97.13 19.56L97.13 32.81L98.86 32.81L98.86 27.39L100.95 27.39ZM127.57 20.97L127.57 19.56L118.6 19.56L118.6 20.97L122.23 20.97L122.23 32.81L123.95 32.81L123.95 20.97L127.57 20.97ZM142.12 27.94L142.12 19.56L140.39 19.56L140.39 27.92Q140.39 29.58 141.04 30.71Q141.45 31.41 142.03 31.88Q142.4 32.18 142.83 32.39Q143.96 32.94 145.37 32.94Q146.77 32.94 147.9 32.39Q148.34 32.18 148.71 31.88Q149.29 31.4 149.7 30.71Q150.37 29.58 150.37 27.92L150.37 19.56L148.64 19.56L148.64 27.94Q148.64 29.71 147.77 30.57Q147.65 30.68 147.52 30.79Q146.7 31.42 145.39 31.42Q144.05 31.42 143.21 30.77Q143.09 30.68 142.98 30.57Q142.12 29.71 142.12 27.94ZM79.46 31.04Q78.55 31.44 77.46 31.44Q76.39 31.44 75.48 31.05Q75.22 30.94 74.96 30.79Q74.6 30.58 74.28 30.31Q73.64 29.75 73.21 28.95Q72.58 27.75 72.58 26.17Q72.58 24.58 73.21 23.39Q73.64 22.59 74.29 22.04Q74.59 21.77 74.95 21.56Q75.13 21.45 75.32 21.37Q76.29 20.91 77.46 20.91Q78.65 20.91 79.62 21.37Q79.8 21.46 79.97 21.56Q80.33 21.77 80.64 22.04Q81.28 22.59 81.71 23.39Q82.34 24.58 82.34 26.17Q82.34 27.75 81.71 28.95Q81.28 29.75 80.64 30.31Q80.33 30.58 79.96 30.79Q79.72 30.93 79.46 31.04ZM101.4 26.01L98.86 26.01L98.86 20.99L101.4 20.99Q102.83 20.99 103.52 21.64Q103.64 21.76 103.75 21.89Q104.21 22.5 104.21 23.46Q104.21 24.34 103.81 24.95Q103.68 25.15 103.51 25.32Q102.81 26.01 101.4 26.01Z" fill="#FFFFFF" fill-opacity="1.000000" fill-rule="evenodd"/>
</svg>
