<svg width="94.000000" height="89.000000" viewBox="0 0 94 89" fill="none" xmlns="http://www.w3.org/2000/svg" xmlns:xlink="http://www.w3.org/1999/xlink">
	<desc>
			Created with Pixso.
	</desc>
	<defs/>
	<path id="Norto" d="M19.96 20.43L16.06 20.43L16.06 49.26L8.37 20.43L3.4 20.43L3.4 59L7.31 59L7.31 29.12L15.31 59L19.96 59L19.96 20.43ZM33.97 20.43L27.64 20.43Q25.2 20.43 23.98 21.65Q22.75 22.87 22.75 25.33L22.75 54.09Q22.75 56.55 23.98 57.78Q25.2 59 27.64 59L33.97 59Q36.42 59 37.65 57.77Q38.87 56.54 38.87 54.09L38.87 25.33Q38.87 22.88 37.65 21.65Q36.42 20.43 33.97 20.43ZM45.88 59L45.88 42.87L49.53 42.87L55.17 59L59.76 59L53.93 42.81Q55.57 42.63 56.52 41.71Q57.78 40.49 57.78 37.97L57.78 25.33Q57.78 24.67 57.69 24.09L63.61 24.09L63.61 59L67.83 59L67.83 24.09L73.81 24.09Q73.72 24.67 73.72 25.33L73.72 54.09Q73.72 56.55 74.95 57.78Q76.17 59 78.61 59L84.93 59Q87.38 59 88.61 57.77Q89.84 56.54 89.84 54.09L89.84 25.33Q89.84 22.88 88.61 21.65Q87.38 20.43 84.93 20.43L78.61 20.43Q76.17 20.43 74.95 21.65Q74.33 22.26 74.02 23.19L74.02 20.43L57.4 20.43L57.4 22.99Q57.1 22.19 56.55 21.65Q55.32 20.43 52.89 20.43L41.65 20.43L41.65 59L45.88 59ZM34.65 26.01L34.65 53.41Q34.65 54.65 34.27 55Q33.91 55.33 32.73 55.33L28.88 55.33Q27.7 55.33 27.32 55Q26.96 54.65 26.96 53.41L26.96 26.01Q26.96 24.77 27.32 24.44Q27.7 24.09 28.88 24.09L32.73 24.09Q33.91 24.09 34.27 24.44Q34.65 24.77 34.65 26.01ZM45.88 39.21L45.88 24.09L51.65 24.09Q52.89 24.09 53.22 24.44Q53.57 24.77 53.57 26.01L53.57 37.29Q53.57 38.53 53.22 38.88Q52.89 39.21 51.65 39.21L45.88 39.21ZM85.61 26.01L85.61 53.41Q85.61 54.65 85.24 55Q84.87 55.33 83.69 55.33L79.85 55.33Q78.67 55.33 78.29 55Q77.92 54.65 77.92 53.41L77.92 26.01Q77.92 24.77 78.29 24.44Q78.67 24.09 79.85 24.09L83.69 24.09Q84.87 24.09 85.24 24.44Q85.61 24.77 85.61 26.01Z" fill="#030211" fill-opacity="1.000000" fill-rule="evenodd"/>
</svg>
