<svg width="174.000000" height="52.000000" viewBox="0 0 174 52" fill="none" xmlns="http://www.w3.org/2000/svg" xmlns:xlink="http://www.w3.org/1999/xlink">
	<desc>
			Created with Pixso.
	</desc>
	<defs/>
	<path id="OutOfThe Sand Box" d="M1.67 11.14Q0.83 12.59 0.83 14.51Q0.83 16.37 1.63 17.79Q1.89 18.24 2.22 18.65Q2.86 19.42 3.67 19.83Q4.64 20.33 5.85 20.33Q7.11 20.33 8.09 19.81Q8.88 19.39 9.5 18.64Q9.85 18.21 10.11 17.73Q10.87 16.33 10.87 14.51Q10.87 12.63 10.07 11.2Q9.82 10.76 9.5 10.36Q8.88 9.6 8.09 9.18Q7.11 8.67 5.85 8.67Q4.64 8.67 3.67 9.16Q2.86 9.58 2.22 10.35Q1.91 10.73 1.67 11.14ZM70.72 11.14Q69.89 12.59 69.89 14.51Q69.89 16.37 70.69 17.79Q70.94 18.24 71.28 18.65Q71.91 19.42 72.73 19.83Q73.69 20.33 74.91 20.33Q76.16 20.33 77.14 19.81Q77.94 19.39 78.55 18.64Q78.9 18.21 79.16 17.73Q79.93 16.33 79.93 14.51Q79.93 12.63 79.13 11.2Q78.88 10.76 78.55 10.36Q77.94 9.6 77.14 9.18Q76.16 8.67 74.91 8.67Q73.69 8.67 72.73 9.16Q71.91 9.58 71.28 10.35Q70.97 10.73 70.72 11.14ZM27.86 9L23.48 9L23.48 9.92L24.89 9.92L24.89 15.42Q24.89 17.85 25.55 18.8Q25.86 19.24 26.27 19.55Q27.27 20.33 28.87 20.33Q30.06 20.33 30.92 19.89Q31.78 19.45 32.17 18.9Q32.88 17.92 32.88 15.62L32.88 9.92L34.28 9.92L34.28 9L29.91 9L29.91 9.92L31.9 9.92L31.9 15.62Q31.9 17.42 31.51 18.12Q31.4 18.34 31.24 18.53Q30.52 19.35 28.85 19.35Q27.48 19.35 26.75 18.67Q26.43 18.38 26.24 17.96Q25.87 17.2 25.87 15.42L25.87 9.92L27.86 9.92L27.86 9ZM56.58 9L47.2 9L46.87 13.61L47.81 13.73L48.08 9.92L51.4 9.92L51.4 19.08L49.04 19.08L49.04 20L54.74 20L54.74 19.08L52.38 19.08L52.38 9.92L55.7 9.92L55.97 13.73L56.91 13.61L56.58 9ZM102.64 9L93.48 9L93.48 9.92L95.06 9.92L95.06 19.08L93.48 19.08L93.48 20L98.57 20L98.57 19.08L96.03 19.08L96.03 14.64L99.2 14.64L99.2 16.05L100.1 16.05L100.1 12.3L99.2 12.3L99.2 13.73L96.03 13.73L96.03 9.92L101.62 9.92L101.86 12.51L102.73 12.51L102.64 9ZM125.64 9L116.26 9L115.93 13.61L116.87 13.73L117.14 9.92L120.46 9.92L120.46 19.08L118.1 19.08L118.1 20L123.8 20L123.8 19.08L121.44 19.08L121.44 9.92L124.76 9.92L125.03 13.73L125.97 13.61L125.64 9ZM142.78 9L138.87 9L138.87 9.92L140.33 9.92L140.33 19.08L138.87 19.08L138.87 20L142.78 20L142.78 19.08L141.31 19.08L141.31 14.78L146.62 14.78L146.62 19.08L145.16 19.08L145.16 20L149.08 20L149.08 19.08L147.6 19.08L147.6 9.92L149.08 9.92L149.08 9L145.16 9L145.16 9.92L146.62 9.92L146.62 13.86L141.31 13.86L141.31 9.92L142.78 9.92L142.78 9ZM171.52 9L162.24 9L162.24 9.92L163.9 9.92L163.9 19.08L162.24 19.08L162.24 20L171.69 20L171.69 16.4L170.79 16.4L170.7 19.08L164.88 19.08L164.88 14.64L168.04 14.64L168.04 16.05L168.94 16.05L168.94 12.3L168.04 12.3L168.04 13.73L164.88 13.73L164.88 9.92L170.5 9.92L170.7 12.59L171.6 12.59L171.52 9ZM2.32 16.74Q1.89 15.7 1.89 14.49Q1.89 13.3 2.3 12.28Q2.55 11.67 2.93 11.12Q3.41 10.44 4.06 10.08Q4.84 9.64 5.85 9.64Q6.79 9.64 7.53 10.03Q8.23 10.38 8.75 11.08Q9.03 11.46 9.24 11.88Q9.82 13.04 9.82 14.49Q9.82 15.86 9.29 16.99Q9.07 17.47 8.75 17.9Q8.25 18.59 7.56 18.95Q6.81 19.35 5.85 19.35Q4.92 19.35 4.18 18.96Q3.47 18.6 2.95 17.88Q2.56 17.34 2.32 16.74ZM71.37 16.74Q70.95 15.7 70.95 14.49Q70.95 13.3 71.36 12.28Q71.6 11.67 71.99 11.12Q72.47 10.44 73.12 10.08Q73.89 9.64 74.91 9.64Q75.85 9.64 76.59 10.03Q77.28 10.38 77.8 11.08Q78.09 11.46 78.3 11.88Q78.88 13.04 78.88 14.49Q78.88 15.86 78.35 16.99Q78.13 17.47 77.81 17.9Q77.3 18.59 76.62 18.95Q75.87 19.35 74.91 19.35Q73.97 19.35 73.23 18.96Q72.53 18.6 72.01 17.88Q71.62 17.34 71.37 16.74ZM9.9 34.78L9.02 34.78Q9.02 34.88 8.98 35.04Q8.88 35.55 8.84 35.64Q8.83 35.68 8.8 35.71Q8.76 35.74 8.69 35.74Q8.61 35.74 8.24 35.47Q7.92 35.22 7.57 35.05Q6.79 34.67 5.82 34.67Q4.71 34.67 3.84 35.12Q3.42 35.34 3.05 35.66Q2.34 36.3 2.08 37.08Q1.93 37.53 1.93 38.03Q1.93 38.77 2.25 39.32L2.25 39.33Q2.57 39.88 2.98 40.17Q3.39 40.47 4.09 40.68Q4.78 40.9 5.18 40.96Q5.58 41.01 6.25 41.07Q6.66 41.11 6.93 41.15Q7.2 41.19 7.62 41.33Q8.04 41.46 8.31 41.67Q8.57 41.87 8.76 42.24Q8.96 42.6 8.96 43.08Q8.96 43.38 8.88 43.66Q8.72 44.21 8.23 44.67Q7.5 45.35 5.87 45.35Q4.63 45.35 3.88 44.74Q3.65 44.56 3.47 44.32Q3.04 43.75 2.81 42.58L1.93 42.58Q2.1 44.22 2.1 44.65Q2.1 45.55 1.93 46.39L2.81 46.39Q2.91 45.74 2.98 45.51Q3.08 45.35 3.18 45.35Q3.26 45.35 3.33 45.43Q3.57 45.63 3.84 45.78Q4.76 46.33 6.01 46.33Q7.05 46.33 7.93 45.95Q8.39 45.76 8.8 45.46Q9.32 45.09 9.62 44.58Q10.01 43.91 10.01 43.01Q10.01 42.3 9.73 41.75Q9.43 41.16 8.8 40.74Q8.73 40.69 8.65 40.64Q8.24 40.41 7.76 40.3Q7.18 40.17 5.95 40.04Q5.41 39.98 5.05 39.91Q4.7 39.84 4.15 39.64Q3.68 39.47 3.4 39.14Q3.34 39.08 3.29 39Q3.27 38.98 3.25 38.95Q2.98 38.54 2.98 37.95Q2.98 37.78 3.01 37.62Q3.13 36.95 3.75 36.37Q3.78 36.34 3.81 36.32Q4.58 35.64 5.93 35.64Q7.1 35.64 7.84 36.21Q8.17 36.47 8.41 36.83Q8.86 37.52 9.02 38.67L9.9 38.51Q9.72 37.09 9.72 36.19Q9.72 35.55 9.9 34.78ZM140.5 37.14Q139.67 38.59 139.67 40.51Q139.67 42.37 140.47 43.79Q140.72 44.24 141.06 44.65Q141.69 45.42 142.51 45.83Q143.47 46.33 144.69 46.33Q145.94 46.33 146.92 45.81Q147.72 45.39 148.33 44.64Q148.68 44.21 148.94 43.73Q149.71 42.33 149.71 40.51Q149.71 38.63 148.91 37.2Q148.66 36.76 148.33 36.36Q147.72 35.6 146.92 35.18Q145.94 34.67 144.69 34.67Q143.47 34.67 142.51 35.16Q141.69 35.58 141.06 36.35Q140.74 36.73 140.5 37.14ZM29.42 35L25.22 35L25.22 35.92L28.01 35.92L24.24 45.08L23.21 45.08L23.21 46L27.21 46L27.21 45.08L25.22 45.08L26.31 42.36L31.41 42.36L32.53 45.08L30.53 45.08L30.53 46L34.54 46L34.54 45.08L33.54 45.08L29.42 35ZM49.92 35L46.58 35L46.58 35.92L48.1 35.92L48.1 45.08L46.58 45.08L46.58 46L51.21 46L51.21 45.08L49 45.08L49 35.92L49.33 35.92L54.57 46.25L56.31 46.25L56.31 35.92L57.58 35.92L57.58 35L53.22 35L53.22 35.92L55.41 35.92L55.41 45.17L55.06 45.17L49.92 35ZM74.6 35L69.72 35L69.72 35.92L71.26 35.92L71.26 45.08L69.72 45.08L69.72 46L74.52 46Q77 46 78.19 44.86Q78.31 44.75 78.41 44.64Q79.81 43.11 79.81 40.29Q79.81 38.22 78.85 36.8Q78.73 36.63 78.6 36.46Q77.86 35.55 76.96 35.27Q76.06 35 74.6 35ZM122.02 35L116.69 35L116.69 35.92L118.31 35.92L118.31 45.08L116.69 45.08L116.69 46L121.85 46Q123.18 46 123.8 45.89Q124.43 45.78 125.05 45.45Q125.21 45.37 125.35 45.26Q125.77 44.95 126.06 44.45Q126.18 44.23 126.27 44Q126.44 43.52 126.44 42.99Q126.44 42.12 126.04 41.5Q125.5 40.64 124.21 40.25Q125.08 39.8 125.46 39.09Q125.75 38.54 125.75 37.83Q125.75 37.29 125.57 36.83Q125.34 36.27 124.84 35.82Q123.92 35 122.02 35ZM166.65 35L162.87 35L162.87 35.92L163.9 35.92L167.18 40.21L163.49 45.08L162.49 45.08L162.49 46L166.65 46L166.65 45.08L164.58 45.08L167.73 40.94L170.74 45.08L168.98 45.08L168.98 46L172.92 46L172.92 45.08L171.91 45.08L168.28 40.21L171.56 35.92L172.55 35.92L172.55 35L168.98 35L168.98 35.92L170.46 35.92L167.73 39.49L165.05 35.92L166.65 35.92L166.65 35ZM141.15 42.74Q140.73 41.7 140.73 40.49Q140.73 39.3 141.14 38.28Q141.38 37.67 141.77 37.12Q142.25 36.44 142.9 36.08Q143.67 35.64 144.69 35.64Q145.63 35.64 146.37 36.03Q147.06 36.38 147.58 37.08Q147.87 37.46 148.08 37.88Q148.65 39.04 148.65 40.49Q148.65 41.86 148.13 42.99Q147.91 43.47 147.59 43.9Q147.08 44.59 146.4 44.95Q145.65 45.35 144.69 45.35Q143.75 45.35 143.01 44.96Q142.31 44.6 141.79 43.88Q141.4 43.34 141.15 42.74ZM72.23 35.92L74.62 35.92Q75.87 35.92 76.57 36.15Q77.27 36.39 77.84 37.19Q77.88 37.24 77.91 37.29Q78.76 38.53 78.76 40.35Q78.76 42.73 77.57 44.03Q77.51 44.1 77.45 44.16Q76.51 45.08 74.52 45.08L72.23 45.08L72.23 35.92ZM119.29 35.92L121.98 35.92Q122.32 35.92 122.62 35.96Q122.92 36 123.49 36.14Q123.86 36.24 124.13 36.46Q124.28 36.57 124.4 36.72Q124.45 36.78 124.49 36.85Q124.74 37.24 124.74 37.79Q124.74 38.08 124.64 38.38Q124.54 38.67 124.29 39.02Q124.03 39.37 123.41 39.6Q122.78 39.82 121.89 39.82L119.29 39.82L119.29 35.92ZM28.87 36.15L31.08 41.5L26.67 41.5L28.87 36.15ZM119.29 40.74L121.73 40.74Q123.43 40.74 124.43 41.29Q124.91 41.55 125.16 41.96Q125.42 42.4 125.42 42.99Q125.42 43.5 125.27 43.87Q125.18 44.06 125.06 44.21Q124.94 44.35 124.78 44.46Q124.44 44.69 124.14 44.81Q123.84 44.94 123.34 45Q122.84 45.06 122.57 45.07Q122.3 45.08 121.81 45.08L119.29 45.08L119.29 40.74Z" fill="#030211" fill-opacity="1.000000" fill-rule="evenodd"/>
	<rect id="Rectangle 13" x="93.225586" y="35.212891" width="11.004333" height="9.036743" stroke="#030211" stroke-opacity="1.000000" stroke-width="1.000000"/>
	<rect id="Rectangle 14" x="94.747070" y="36.755859" width="7.972687" height="5.963379" fill="#030211" fill-opacity="1.000000"/>
</svg>
