<svg width="187.490234" height="47.368652" viewBox="0 0 187.49 47.3687" fill="none" xmlns="http://www.w3.org/2000/svg" xmlns:xlink="http://www.w3.org/1999/xlink">
	<desc>
			Created with Pixso.
	</desc>
	<defs/>
	<path id="Points one" d="M89.87 4.79C93.59 4.79 96.29 7.66 96.29 12.26C96.29 16.86 93.59 19.73 89.87 19.73C86.15 19.73 83.45 16.86 83.45 12.26C83.45 7.66 86.15 4.79 89.87 4.79ZM187.29 8.62L185.58 8.62C185.41 7.19 184.07 6.35 182.31 6.35C180.38 6.35 179.1 7.37 179.1 8.77C179.1 10.33 180.83 10.89 181.91 11.18L183.39 11.58C184.9 11.97 187.49 12.86 187.49 15.58C187.49 17.94 185.58 19.79 182.23 19.79C179.1 19.79 177.17 18.17 177 15.78L178.82 15.78C178.96 17.43 180.49 18.2 182.23 18.2C184.24 18.2 185.78 17.14 185.78 15.55C185.78 14.11 184.41 13.57 182.88 13.14L181.09 12.63C178.82 11.97 177.4 10.81 177.4 8.85C177.4 6.41 179.58 4.79 182.37 4.79C185.18 4.79 187.21 6.43 187.29 8.62ZM61.78 19.53L60.02 19.53L60.02 4.99L64.93 4.99C68.35 4.99 69.88 7.02 69.88 9.59C69.88 12.16 68.35 14.22 64.96 14.22L61.78 14.22L61.78 19.53ZM110.55 4.99L112.3 4.99L112.3 19.53L110.55 19.53L110.55 4.99ZM136.93 4.99L138.66 4.99L138.66 19.53L136.96 19.53L129.03 8.11L128.89 8.11L128.89 19.53L127.13 19.53L127.13 4.99L128.83 4.99L136.79 16.44L136.93 16.44L136.93 4.99ZM157.27 6.55L152.69 6.55L152.69 4.99L163.6 4.99L163.6 6.55L159.02 6.55L159.02 19.53L157.27 19.53L157.27 6.55ZM89.87 18.08C92.51 18.08 94.58 16.04 94.58 12.26C94.58 8.48 92.51 6.44 89.87 6.44C87.23 6.44 85.15 8.48 85.15 12.26C85.15 16.04 87.23 18.08 89.87 18.08ZM61.78 6.55L61.78 12.66L64.9 12.66C67.24 12.66 68.14 11.33 68.14 9.59C68.14 7.84 67.24 6.55 64.88 6.55L61.78 6.55ZM65.87 28.79C69.59 28.79 72.29 31.66 72.29 36.26C72.29 40.86 69.59 43.73 65.87 43.73C62.15 43.73 59.45 40.86 59.45 36.26C59.45 31.66 62.15 28.79 65.87 28.79ZM96.35 28.99L98.08 28.99L98.08 43.53L96.37 43.53L88.45 32.11L88.3 32.11L88.3 43.53L86.55 43.53L86.55 28.99L88.25 28.99L96.2 40.44L96.35 40.44L96.35 28.99ZM121.79 43.53L112.9 43.53L112.9 28.99L121.68 28.99L121.68 30.55L114.66 30.55L114.66 35.47L121.22 35.47L121.22 37.03L114.66 37.03L114.66 41.97L121.79 41.97L121.79 43.53ZM65.87 42.08C68.51 42.08 70.58 40.04 70.58 36.26C70.58 32.48 68.51 30.44 65.87 30.44C63.23 30.44 61.15 32.48 61.15 36.26C61.15 40.04 63.23 42.08 65.87 42.08Z" fill="#030211" fill-opacity="1.000000" fill-rule="evenodd"/>
	<path id="Star 8" d="M5.22 13.02L3.17 35.52L23.68 45L44.19 35.52L42.14 13.02L23.68 0L5.22 13.02ZM23.68 1.22L6.17 13.57L4.23 34.91L23.68 43.89L43.13 34.91L41.19 13.57L23.68 1.22Z" fill="#030211" fill-opacity="1.000000" fill-rule="evenodd"/>
	<path id="Star 9" d="M8.58 14.96L6.91 33.36L23.68 41.11L40.45 33.36L38.78 14.96L23.68 4.31L8.58 14.96ZM23.68 5.54L9.54 15.52L7.97 32.75L23.68 40.01L39.39 32.75L37.82 15.52L23.68 5.54Z" fill="#030211" fill-opacity="1.000000" fill-rule="evenodd"/>
	<path id="Star 10" d="M11.9 16.88L10.59 31.24L23.68 37.28L36.77 31.24L35.46 16.88L23.68 8.56L11.9 16.88ZM23.68 9.79L12.85 17.43L11.65 30.63L23.68 36.18L35.71 30.63L34.51 17.43L23.68 9.79Z" fill="#030211" fill-opacity="1.000000" fill-rule="evenodd"/>
	<path id="Star 11" d="M15.57 19L14.67 28.88L23.68 33.04L32.69 28.88L31.79 19L23.68 13.28L15.57 19ZM23.68 14.5L16.53 19.55L15.73 28.27L23.68 31.94L31.63 28.27L30.83 19.55L23.68 14.5Z" fill="#030211" fill-opacity="1.000000" fill-rule="evenodd"/>
	<rect id="Rectangle 10" x="126.865234" y="28.431641" width="57.534142" height="2.171021" fill="#030211" fill-opacity="1.000000"/>
	<rect id="Rectangle 11" x="126.865234" y="33.498047" width="57.534142" height="2.171021" fill="#030211" fill-opacity="1.000000"/>
	<rect id="Rectangle 12" x="126.865234" y="38.685547" width="57.534142" height="2.171021" fill="#030211" fill-opacity="1.000000"/>
</svg>
