<svg width="205.422852" height="51.608643" viewBox="0 0 205.423 51.6086" fill="none" xmlns="http://www.w3.org/2000/svg" xmlns:xlink="http://www.w3.org/1999/xlink">
	<desc>
			Created with Pixso.
	</desc>
	<defs/>
	<path id="Studio Green" d="M72.52 8.74L69.57 8.74C69.46 7.59 68.56 6.92 67.09 6.92C65.58 6.92 64.75 7.61 64.75 8.55C64.73 9.59 65.79 10.06 67.05 10.35L68.36 10.66C70.89 11.24 72.71 12.52 72.72 14.94C72.71 17.61 70.62 19.3 67.07 19.3C63.54 19.3 61.29 17.68 61.21 14.53L64.19 14.53C64.29 15.99 65.44 16.72 67.04 16.72C68.6 16.72 69.61 16 69.62 14.94C69.61 13.96 68.73 13.5 67.14 13.12L65.56 12.72C63.1 12.13 61.59 10.9 61.59 8.75C61.58 6.11 63.92 4.35 67.11 4.35C70.34 4.35 72.48 6.14 72.52 8.74ZM185.94 4.35C189.8 4.35 192.75 7.07 192.75 11.83C192.75 16.58 189.8 19.3 185.94 19.3C182.07 19.3 179.14 16.56 179.14 11.83C179.14 7.07 182.07 4.35 185.94 4.35ZM89.98 7.08L85.52 7.08L85.52 4.55L97.47 4.55L97.47 7.08L93.02 7.08L93.02 19.1L89.98 19.1L89.98 7.08ZM119.73 13.74L119.73 4.55L122.81 4.55L122.81 14C122.81 17.18 120.39 19.3 116.78 19.3C113.15 19.3 110.75 17.18 110.75 14L110.75 4.55L113.82 4.55L113.82 13.74C113.82 15.4 114.99 16.6 116.78 16.6C118.56 16.6 119.73 15.4 119.73 13.74ZM148.9 11.81C148.9 16.36 146.22 19.1 141.79 19.1L136.63 19.1L136.63 4.55L141.83 4.55C146.22 4.55 148.9 7.28 148.9 11.81ZM162.48 4.55L165.56 4.55L165.56 19.1L162.48 19.1L162.48 4.55ZM185.94 16.58C188.17 16.58 189.64 14.91 189.64 11.83C189.64 8.74 188.17 7.07 185.94 7.07C183.71 7.07 182.25 8.74 182.25 11.83C182.25 14.91 183.71 16.58 185.94 16.58ZM139.71 7.19L139.71 16.46L141.66 16.46C144.4 16.46 145.84 15.05 145.84 11.81C145.84 8.58 144.4 7.19 141.67 7.19L139.71 7.19ZM74.45 33.25L71.33 33.25C70.94 31.89 69.87 31.07 68.28 31.07C66.06 31.07 64.54 32.78 64.54 35.81C64.54 38.85 66 40.58 68.31 40.58C70.35 40.58 71.58 39.43 71.62 37.63L68.5 37.63L68.5 35.31L74.59 35.31L74.59 37.14C74.59 40.97 71.97 43.3 68.29 43.3C64.2 43.3 61.43 40.44 61.43 35.84C61.43 31.12 64.39 28.35 68.23 28.35C71.52 28.35 74.06 30.38 74.45 33.25ZM95.07 43.1L92 43.1L92 28.55L97.73 28.55C101.04 28.55 102.95 30.41 102.95 33.3C102.95 35.29 102.03 36.73 100.37 37.44L103.47 43.1L100.07 43.1L97.31 37.94L95.07 37.94L95.07 43.1ZM130.05 43.1L120.22 43.1L120.22 28.55L130.02 28.55L130.02 31.08L123.3 31.08L123.3 34.55L129.52 34.55L129.52 37.09L123.3 37.09L123.3 40.56L130.05 40.56L130.05 43.1ZM157.4 43.1L147.57 43.1L147.57 28.55L157.37 28.55L157.37 31.08L150.65 31.08L150.65 34.55L156.87 34.55L156.87 37.09L150.65 37.09L150.65 40.56L157.4 40.56L157.4 43.1ZM184.03 28.55L187.09 28.55L187.09 43.1L184.44 43.1L178.11 33.94L178 33.94L178 43.1L174.92 43.1L174.92 28.55L177.62 28.55L183.9 37.7L184.03 37.7L184.03 28.55ZM95.07 31.07L95.07 35.47L97.16 35.47C98.92 35.47 99.78 34.74 99.78 33.3C99.78 31.85 98.92 31.07 97.14 31.07L95.07 31.07Z" fill="#030211" fill-opacity="1.000000" fill-rule="evenodd"/>
	<path id="Star 8" d="M25.8 0L24.32 17.41L16.97 1.55L21.54 18.42L9.21 6.03L19.28 20.33L3.45 12.9L17.8 22.89L0.39 21.32L17.28 25.8L0.39 30.28L17.8 28.71L3.45 38.7L19.28 31.27L9.21 45.57L21.54 33.17L16.97 50.05L24.32 34.19L25.8 51.6L27.28 34.19L34.62 50.05L30.06 33.17L42.39 45.57L32.32 31.27L48.15 38.7L33.8 28.71L51.21 30.28L34.31 25.8L51.21 21.32L33.8 22.89L48.15 12.9L32.32 20.33L42.39 6.03L30.06 18.42L34.62 1.55L27.28 17.41L25.8 0Z" fill="#030211" fill-opacity="1.000000" fill-rule="evenodd"/>
</svg>
